<?xml version='1.0' encoding='utf-8'?>
<!DOCTYPE svg PUBLIC "-//W3C//DTD SVG 20010904//EN"
  "http://www.w3.org/TR/2001/REC-SVG-20010904/DTD/svg10.dtd"><!--

   Author: Yves Baelde

   Aspect ratio  1/1 = 750/750

--><svg viewbox="-372 -372 744 744" width="750" height="750" xmlns="http://www.w3.org/2000/svg" preserveaspectratio="xMinYMin" xml:space="preserve"><defs><clippath id="xg"><path d="m101-101 37 64V37l-37 64-64 37H-37l-64-37-37-64V-37l37-64 64-37H37" fill="#FFF1C7"></path></clippath></defs><path fill="#FFDB69" d="M390-390H-390V390H390"></path><path fill="#2D9781" d="M-530 0 265-459V459M530 0-265-459V459M0-530-459 265H459M0 530-459-265H459"></path><path d="M265-265H-265V265H265" fill="#FFF1C7"></path><path fill="#FFF1C7" d="m0-306-265 153V153L0 306 265 153V-153M306 0 153 265H-153L-306 0l153-265H153"></path><path fill="#FFDB69" fill-rule="evenodd" d="M362-97-97-362-362 97 97 362M97-362 362 97-97 362-362-97M265-265H-265V265H265M-284 0 142-246V246M284 0-142-246V246M0-284-246 142H246M0 284-246-142H246"></path><path d="M0-60-19-93H19M0 60-19 93H19M-60 0-93-19V19M60 0 93-19V19M71-63l19 33H-90l19-33 19 33H52m0 60H-90l19 33 19-33H90L71 63M-63 71l33 19V-90l-33 19 33 19V52m60
  0V-90l33 19-33 19V90l33-19" fill="#00A0AC"></path><path style="clip-path:url(#xg);fill:none;stroke:#bdf;opacity:.36;stroke-width:2" d="m153-185-306 82v12l306-82v12l-306
  82v12l306-82v12l-306 82v12l306-82v12l-306 82v12l306-82v12l-306 82v12l306-82v12l-306 82v12l306-82v12l-306 82v12l306-82v12l-306 82v12l306-82v12l-306
  82v12l306-82v12l-306 82 v12l306-82v12l-306 82v12l306-82v12l-306 82v12l306-82v12l-306 82M-185-153l82 306h12l-82-306h12l82 306h12l-82-306h12l82
  306h12l-82-306h12l82 306h12l-82-306h12l82 306h12l-82-306h12l82 306h12l-82-306h12l82 306h12l-82-306h12l82 306h12l-82-306h12l82 306h12l-82-306h12l82
  306h12l-82-306h12l82 306h12l-82-306h12l82 306h12l-82-306h12l82 306" fill="#FFDB69"></path><path opacity=".3" d="M1-41a41 41 0 1 1-2 0M8-8H-8V8H8" fill="#2D9781"></path><path fill-rule="evenodd" fill="#000F2A" d="M45-26-52 0 45 26-26-45 0 52 26-45-45 26 52 0-45-26 26 45 0-52-26 45M8-8H-8V8H8M11-3-3-11-11 3 3 11M3-11 11 3-3 11-11-3"></path></svg>
