<svg xmlns="http://www.w3.org/2000/svg" xmlns:xlink="http://www.w3.org/1999/xlink" width="600" height="358" viewbox="0 0 600 358"><g fill="#70cddd" stroke="#000"><path d="M118.95 119.128v-1.524l-.7 1.524zM118.952 115.375v-17.85l-2.616 5.718z" fill="#FFF1C7"></path><path d="M118.95 115.375l-2.613-12.132-11.67 15.885h13.58l.704-1.528zM108.125 90.525h10.826v-19.54l-4.992 6.823z" fill="#FFDB69"></path><path d="M118.95 90.525h-10.825l-7.56 16.49 2.6 12.113h1.503l11.67-15.884 2.613-5.746zM118.952 47.622v-.814l-.374.814zM118.952 70.986V47.622h-.374l-7.56 16.538 2.94 13.648z" fill="#FFDB69"></path><path d="M103.165 119.128l-2.6-12.112-8.84 12.112zM92.398 94.345h14l7.56-16.537-2.94-13.65L98.23 81.63z" fill="#FFDB69"></path><path d="M84.84 110.836l1.78 8.292h5.105l8.84-12.112 5.833-12.67H92.4zM118.95 46.848v-22.15l-10.266 14.027-5.833 12.717h14zM116.85 51.442h-13.998l-7.56 16.537 2.94 13.648 12.786-17.47zM113.305 8.538h5.646V6.58h-4.748z" fill="#000F2A"></path><path d="M118.952 24.7V8.537h-5.647l-7.607 16.537 2.986 13.65zM86.62 119.128l-1.78-8.293-6.092 8.293zM76.627 98.12h13.998l7.606-16.492-2.938-13.65L82.46 85.45z" fill="#000F2A"></path><path d="M69.068 114.657l.964 4.472h8.716l6.093-8.294 5.785-12.717h-14zM87.08 55.262h14l7.605-16.538-2.987-13.648-12.785 17.468zM101.08 55.262h-14l-7.56 16.49 2.94 13.696 12.832-17.47zM97.533 12.358h13.998l2.658-5.777h-14.005z" fill="#FFDB69"></path><path d="M111.53 12.358H97.534l-7.56 16.537 2.94 13.65 12.785-17.47zM70.03 119.128l-.963-4.472-3.273 4.472zM60.902 101.938H74.9l7.56-16.49-2.94-13.696-12.786 17.516z" fill="#FFF1C7"></path><path d="M53.344 118.475l.14.653h12.31l3.274-4.472 5.833-12.718H60.903zM71.354 59.08h14l7.56-16.536-2.94-13.65-12.786 17.47zM85.354 59.08h-14l-7.56 16.492 2.94 13.696L79.52 71.752zM81.808 16.18h13.998l4.385-9.6H86.21z" fill="#4E373D"></path><path d="M95.806 16.178H81.808l-7.56 16.537 2.94 13.65 12.785-17.47zM53.483 119.128l-.14-.653-.477.653zM45.177 105.758h14l7.557-16.49-2.94-13.696-12.83 17.47z" fill="#FFF1C7"></path><path d="M53.344 118.476l5.833-12.718h-14l-6.15 13.37h13.84zM55.583 62.854h14l7.605-16.49-2.94-13.65-12.832 17.47zM69.582 62.854h-14l-7.56 16.538 2.94 13.65 12.833-17.47zM80.035 20l6.17-13.42H72.38l-.51.7L66.035 20z" fill="#FCFCA1"></path><path d="M80.035 20h-14l-7.56 16.488 2.94 13.696 12.832-17.47zM71.868 7.28l.51-.7h-.66zM29.406 109.578h13.998l7.56-16.537-2.94-13.648-12.785 17.47zM25.04 119.128h13.983l4.382-9.55h-14z" fill="#2ED031"></path><path d="M39.857 66.675h13.998l7.56-16.49-2.938-13.697L45.69 54zM53.856 66.675h-14L32.3 83.212l2.94 13.65 12.783-17.47zM56.143 11.1L50.31 23.818h14L71.867 7.28l-.15-.7H59.45z" fill="#000F2A"></path><path d="M64.31 23.818h-14l-7.56 16.49L45.69 54l12.787-17.51zM56.143 11.1l3.308-4.52H55.17zM13.68 113.397h14l7.56-16.536-2.94-13.648-12.787 17.47zM11.037 119.128H25.05l2.63-5.73h-14zM24.133 70.495H38.13L45.69 54l-2.94-13.69-12.832 17.467z" fill="#4E373D"></path><path d="M38.13 70.495H24.133l-7.607 16.537 2.987 13.65L32.3 83.21zM40.37 14.92l-5.83 12.672h13.997L56.143 11.1l-.975-4.52h-8.67z" fill="#FFDB69"></path><path d="M48.537 27.59H34.54L26.98 44.13l2.938 13.65 12.832-17.47zM40.372 14.92l6.125-8.34H38.58zM19.512 100.682l-2.987-13.65-10.312 14.09v16.096h5.694zM6.213 119.128h4.813l.88-1.91H6.214z" fill="#000F2A"></path><path d="M8.36 74.313h14l7.558-16.536-2.938-13.65-12.787 17.47z" fill="#4E373D"></path><path d="M16.526 87.032l5.833-12.72h-14l-2.146 4.7v22.11zM24.646 18.74l-5.834 12.67h14l7.56-16.49-1.79-8.34h-5.06zM32.812 31.41h-14l-7.56 16.538 2.94 13.65 12.788-17.47zM24.646 18.74L33.52 6.58H22.038z" fill="#2ED031"></path><path d="M14.192 61.598l-2.94-13.65-5.04 6.86v23.327h.422z" fill="#F78383"></path><path d="M6.213 79.05l.42-.916h-.42zM22.037 6.58h-1.46L8.874 22.515l-2.66 5.844v6.872h10.874l7.56-16.49z" fill="#FFDB69"></path><path d="M6.213 54.808l5.04-6.86 5.833-12.718H6.213zM8.873 22.514L20.578 6.58h-13.6l-.764 1.67v1.913z" fill="#2ED031"></path><path d="M8.874 22.514l-2.66-12.35V28.33zM6.213 8.253L6.98 6.58h-.767z" fill="#000F2A"></path></g><g fill="#f6eb16" stroke="#000"><path d="M153.574 118.616l-7.047-12.065H135.33l-1.655 12.58h18.687zM124.922 119.13h8.752l1.656-12.58h-10.408z" fill="#F78383"></path><path d="M134.302 92.668l-7.187-3.633-2.193.928v16.588h7.607z" fill="#E5625C"></path><path d="M134.302 92.668l10.312-4.332 7.093 12.065-5.18 6.15h-13.998z" fill="#B4B567"></path><path d="M140.136 75.153h-11.2l-1.82 13.882 7.187 3.633 12.925-5.45zM124.922 89.956l2.193-.92 1.82-13.884h-4.013zM170.913 119.128l.16-1.21-7.186-3.682-11.558 4.892z" fill="#00A0AC"></path><path d="M170.913 119.128h13.736l-3.265-5.59-10.313 4.38z" fill="#FEEABD"></path><path d="M176.905 100.402h-11.2l-1.82 13.835 7.187 3.68 12.88-5.45z" fill="#110B49"></path><path d="M163.886 114.237l-10.312 4.378-7.047-12.064 5.18-6.148h14zM126.136 75.152l1.82-13.835-3.034-1.532v15.367z" fill="#9AC6AE"></path><path d="M127.957 61.317l10.312-4.332L145.313 69l-5.178 6.153h-14z" fill="#B4B567"></path><path d="M140.834 55.867l-7.045-12.065h-8.868v15.982l3.034 1.534zM151.707 100.4h11.2l1.773-13.88-7.14-3.634-12.925 5.45zM164.68 86.52L175 82.186l7.084 12.065-5.18 6.15h-13.997zM170.513 69h-11.2l-1.773 13.886 7.14 3.632 12.924-5.45zM157.54 82.886l-10.313 4.332-7.09-12.065L145.313 69h14zM201.45 111.767l-7.186-3.68-12.88 5.45 3.265 5.59h15.83zM200.48 119.128h18.184l-6.902-11.74-10.312 4.38z" fill="#FCFCA1"></path><path d="M207.283 94.253h-11.2l-1.82 13.835 7.187 3.68 12.88-5.45z" fill="#2ED031"></path><path d="M194.263 108.088l-10.312 4.378-7.045-12.065 5.18-6.148h13.998zM138.968 37.653l-7.093-12.066-6.953 2.953V43.8h8.867z" fill="#66B3AF"></path><path d="M124.922 28.55l9.567-4.034-7.094-12.065h-2.474zM145.314 69h11.2l1.82-13.832-7.187-3.633-12.878 5.45z" fill="#FEEABD"></path><path d="M158.333 55.168l10.313-4.332 7.045 12.018L170.513 69h-13.998z" fill="#B4B567"></path><path d="M164.167 37.653h-11.2l-1.82 13.882 7.186 3.633 12.878-5.45zM151.146 51.535l-10.312 4.332-7.045-12.065 5.18-6.15h13.998zM182.083 94.252h11.202l1.818-13.882-7.186-3.633L175 82.187zM195.104 80.37l10.312-4.332 7.045 12.065-5.178 6.15h-13.998z" fill="#F04141"></path><path d="M200.89 62.854h-11.2l-1.773 13.883 7.186 3.633 12.878-5.45z" fill="#00A0AC"></path><path d="M187.917 76.737l-10.313 4.332L170.512 69l5.18-6.146h13.998zM218.854 119.453h11.2l1.773-13.834-7.186-3.682-12.877 5.45z" fill="#F04141"></path><path d="M230.095 119.128h7.564v-15.986l-5.834 2.476z" fill="#9AC6AE"></path><path d="M237.66 103.16V88.1h-11.2l-1.82 13.836 7.187 3.68z" fill="#FEEABD"></path><path d="M224.64 101.938l-10.312 4.38-7.046-12.066 5.18-6.15h13.997zM124.922 12.452h2.474l4.945-5.87h-7.418zM138.97 37.653h11.197l1.773-13.835-7.138-3.68-12.926 5.45z" fill="#DE619C"></path><path d="M151.94 23.817l10.36-4.38 7.046 12.067-5.18 6.148h-14z" fill="#FFB39E"></path><path d="M157.773 6.303h-11.198l-1.773 13.835 7.138 3.68 12.927-5.45z"></path><path d="M144.8 20.138l-10.31 4.378-7.094-12.065 5.18-6.148h14zM175.69 62.854h11.2l1.82-13.835-7.186-3.634-12.878 5.45zM188.71 49.02l10.31-4.333 7.096 12.02-5.226 6.147h-14zM194.543 31.505h-11.198l-1.82 13.88 7.185 3.634 12.878-5.45z" fill="#F94B19"></path><path d="M181.523 45.386l-10.312 4.332-7.044-12.065 5.18-6.148h13.998zM212.46 88.103h11.2l1.82-13.882-7.186-3.632-12.878 5.45z"></path><path d="M237.66 73.084l-1.868-3.195-10.312 4.33-1.82 13.883h14z"></path><path d="M218.293 70.588l7.187 3.633 12.18-5.153v-1.495l-6.348-10.866h-11.197z" fill="#231E2E"></path><path d="M218.293 70.588l-10.31 4.332-7.093-12.066 5.226-6.148h14zM169.346 31.504h11.198l1.82-13.835-7.185-3.68-12.88 5.448z"></path><path d="M182.365 17.67l10.312-4.38 7.046 12.064-5.18 6.15h-14z" fill="#231E2E"></path><path d="M195.244 12.22l-3.292-5.64h-15.8l-.973 7.41 7.185 3.678z"></path><path d="M164.867 18.368l10.313-4.38.972-7.407h-18.215zM206.116 56.705h11.198l1.773-13.835-7.186-3.632-12.878 5.45z" fill="#231E2E"></path><path d="M219.087 42.87l10.313-4.332 7.093 12.02-5.18 6.148h-14zM224.92 25.354h-11.198l-1.82 13.883 7.185 3.633 12.926-5.45zM211.9 39.237l-10.312 4.332-7.046-12.066 5.182-6.15h13.998zM237.66 73.084V69.1l-1.868.79z" fill="#FFDB69"></path><path d="M231.312 56.706l6.347 10.865V50.558h-1.167zM199.723 25.354h11.198l1.822-13.835-7.186-3.68-12.88 5.45z"></path><path d="M212.742 11.52l10.312-4.38 7.046 12.066-5.18 6.148h-14z" fill="#FCFCA1"></path><path d="M205.557 7.84l7.185 3.68 11.67-4.94h-18.69z"></path><path d="M195.244 12.22l10.312-4.38.166-1.26h-13.77zM236.493 50.557h1.166v-15.5l-8.26 3.48zM237.66 35.05V19.205h-7.56l-5.18 6.148 7.093 12.066zM237.66 19.205V6.58h-13.284l-1.322.56 7.046 12.065z"></path></g><g fill="#ed2224" stroke="#000"><path d="M244 111.302l-.368-.646v1.292zM244 87.078l-.368-.646v1.292zM244 62.854l-.368-.637V63.5zM244 38.678l-.368-.646v1.292zM244 14.455l-.368-.646v1.29zM246.407 119.128l-2.775-2.584v2.584z" fill="#FFB39E"></path><path d="M243.632 111.948v4.596l2.774 2.584h16.12L258 111.302h-14zM251 99.188l-2.795 12.114H258l7-12.114-2.096-3.63z" fill="#FFB39E"></path><path d="M251 99.19l-7.368-6.87v18.336l.368.646h4.205z"></path><path d="M243.632 87.724v4.596L251 99.188l11.902-3.63-4.902-8.48h-14zM251 74.967l-2.795 12.11H258l7-12.11-2.096-3.635z"></path><path d="M251 74.967l-7.368-6.87v18.335l.368.646h4.205z" fill="#DE619C"></path><path d="M243.632 63.5V68.1l7.368 6.87 11.902-3.635-4.902-8.48h-14zM251 50.79l-2.795 12.064H258l7-12.064-2.096-3.634z" fill="#4E373D"></path><path d="M251 50.79l-7.368-6.87v18.29l.368.644h4.205z" fill="#E5625C"></path><path d="M243.632 39.323v4.597L251 50.79l11.902-3.634-4.902-8.48h-14z"></path><path d="M251 26.567l-2.795 12.11H258l7-12.11-2.096-3.635zM251 26.565l-7.368-6.868V38.03l.368.647h4.205zM243.632 15.1v4.597L251 26.565l11.902-3.633L258 14.454h-14zM248.205 14.454H258l4.555-7.873h-12.53z" fill="#E5625C"></path><path d="M248.205 14.454l1.82-7.873h-6.393v7.228l.368.646zM286 111.302l-2.1-3.633L272 111.3l-1.807 7.826h11.286z"></path><path d="M272 111.302l-9.096-8.478-4.904 8.478 4.527 7.826h7.667z"></path><path d="M272 111.302l11.9-3.633-4.9-8.48h-14l-2.098 3.634z"></path><path d="M272 87.08l-2.795 12.11H279l7-12.11-2.1-3.635zM272 87.078l-9.096-8.478L258 87.078l7 12.11h4.204z"></path><path d="M272 87.08l11.9-3.635-4.9-8.478h-14l-2.098 3.633zM272 62.854l-2.795 12.113H279l7-12.113-2.1-3.587z"></path><path d="M272 62.854l-9.096-8.43-4.904 8.43 7 12.113h4.204z"></path><path d="M272 62.854l11.9-3.586-4.9-8.478h-14l-2.098 3.633zM272 38.678l-2.795 12.112H279l7-12.112-2.1-3.634z"></path><path d="M272 38.678l-9.096-8.478L258 38.678l7 12.112h4.204z"></path><path d="M272 38.677l11.9-3.633-4.9-8.48h-14l-2.098 3.636z"></path><path d="M272 14.454l-2.795 12.11H279l7-12.11-2.1-3.634zM272 14.454l-9.096-8.48-4.904 8.48 7 12.113h4.204z" fill="#FEEABD"></path><path d="M272 14.454l11.9-3.634-2.447-4.24h-17.9zM288.4 119.128l-4.5-4.193-2.42 4.193z"></path><path d="M304.523 119.128L300 111.302h-14l-2.1 3.633 4.5 4.193zM293 99.188l-2.798 12.114H300l7-12.114-2.1-3.63z" fill="#FEEABD"></path><path d="M293 99.19l-9.1-8.478-4.9 8.477 7 12.112h4.2zM293 99.188l11.9-3.63-4.9-8.48h-14l-2.1 3.634zM293 74.967l-2.798 12.11H300l7-12.11-2.1-3.635z"></path><path d="M293 74.967l-9.1-8.48-4.9 8.48 7 12.112h4.2z"></path><path d="M293 74.967l11.9-3.634-4.9-8.48h-14l-2.1 3.635z"></path><path d="M293 50.79l-2.798 12.064H300l7-12.064-2.1-3.634zM293 50.79l-9.1-8.48-4.9 8.48 7 12.064h4.2z"></path><path d="M293 50.79l11.9-3.633-4.9-8.48h-14l-2.1 3.634z"></path><path d="M293 26.567l-2.798 12.11H300l7-12.11-2.1-3.635zM293 26.565l-9.1-8.478-4.9 8.478 7 12.112h4.2z" fill="#FFF1C7"></path><path d="M293 26.567l11.9-3.635-4.9-8.478h-14l-2.1 3.634zM290.2 14.454h9.8l4.55-7.873h-12.53z"></path><path d="M286 14.454h4.202l1.82-7.873h-10.57zM328 111.302l-2.1-3.633L314 111.3l-1.81 7.826h11.285z"></path><path d="M314 111.302l-9.1-8.478-4.9 8.478 4.52 7.826h7.67zM314 111.302l11.9-3.633-4.9-8.48h-14l-2.1 3.634z"></path><path d="M314 87.08l-2.8 12.11h9.8l7-12.11-2.1-3.635zM314 87.078l-9.1-8.478-4.9 8.478 7 12.11h4.2z"></path><path d="M314 87.08l11.9-3.635-4.9-8.478h-14l-2.1 3.633zM314 62.854l-2.8 12.113h9.8l7-12.113-2.1-3.587z"></path><path d="M314 62.854l-9.1-8.43-4.9 8.43 7 12.113h4.2zM314 62.854l11.9-3.586-4.9-8.478h-14l-2.1 3.633zM314 38.678l-2.8 12.112h9.8l7-12.112-2.1-3.634z" fill="#FFF1C7"></path><path d="M314 38.678l-9.1-8.478-4.9 8.478 7 12.112h4.2zM314 38.677l11.9-3.633-4.9-8.48h-14l-2.1 3.636z"></path><path d="M314 14.454l-2.8 12.11h9.8l7-12.11-2.1-3.634z"></path><path d="M314 14.454l-9.1-8.48-4.9 8.48 7 12.113h4.2z"></path><path d="M314 14.454l11.9-3.634-2.45-4.24h-17.9zM330.4 119.128l-4.5-4.193-2.424 4.193z"></path><path d="M346.52 119.128l-4.52-7.826h-14l-2.1 3.633 4.5 4.193zM335 99.188l-2.8 12.114h9.8l7-12.114-2.1-3.63z" fill="#FCFCA1"></path><path d="M335 99.19l-9.1-8.478-4.9 8.477 7 12.112h4.2zM335 99.188l11.897-3.63-4.897-8.48h-14l-2.1 3.634zM335 74.967l-2.8 12.11h9.8l7-12.11-2.1-3.635z"></path><path d="M335 74.967l-9.1-8.48-4.9 8.48 7 12.112h4.2z"></path><path d="M335 74.967l11.9-3.634-4.9-8.48h-14l-2.1 3.635z" fill="#2D9781"></path><path d="M335 50.79l-2.8 12.064h9.8l6.996-12.064-2.1-3.634z"></path><path d="M335 50.79l-9.1-8.48-4.9 8.48 7 12.064h4.2z"></path><path d="M335 50.79l11.897-3.633-4.897-8.48h-14l-2.1 3.634z"></path><path d="M335 26.567l-2.8 12.11h9.8l6.996-12.11-2.1-3.635z"></path><path d="M335 26.565l-9.1-8.478-4.9 8.478 7 12.112h4.2z" fill="#F7F3DB"></path><path d="M335 26.567l11.897-3.635L342 14.454h-14l-2.1 3.634zM332.2 14.454h9.796l4.55-7.873h-12.528z"></path><path d="M328 14.454h4.2l1.817-7.873H323.45zM354.188 119.128h2.18v-7.94l-.368.114zM356 111.302l-9.104-8.478-4.896 8.478 4.52 7.826h7.666z"></path><path d="M356.37 111.187v-12h-7.374l-2.1 3.637 9.104 8.478z"></path><path d="M353.197 99.188h3.172V86.964l-.37.114z"></path><path d="M356 87.078l-9.103-8.478L342 87.078l6.996 12.11h4.2z"></path><path d="M356.37 86.964V74.967h-7.374l-2.1 3.633L356 87.078zM353.197 74.967h3.172V62.743l-.37.11z"></path><path d="M356 62.854l-9.103-8.43-4.897 8.43 6.996 12.113h4.2zM356.37 62.742V50.79h-7.374l-2.1 3.633 9.104 8.43zM353.197 50.79h3.172V38.562l-.37.115z"></path><path d="M356 38.678l-9.103-8.478L342 38.678l6.996 12.112h4.2z"></path><path d="M356.37 38.562V26.565h-7.374l-2.1 3.635L356 38.677zM353.197 26.565h3.172V14.34l-.37.114z"></path><path d="M356 14.454l-9.103-8.48-4.897 8.48 6.996 12.113h4.2z"></path><path d="M356 14.454l.37-.113V6.58h-8.824z" fill="#2D9781"></path></g><g fill="#3a53a4" stroke="#000"><path d="M475.078 94.513l-1.727-1.006-9.19 15.652 10.87 7.452h.048zM473.558 119.128h1.52v-2.516h-.047zM475.078 72.712v-8.255l-3.453 5.897z"></path><path d="M475.078 94.513v-3.955l-1.728 2.95zM425.243 101.706l10.92 7.453h13.997V95.182L434.434 86z" fill="#4E373D"></path><path d="M430.324 119.128h19.837v-9.97h-13.998z"></path><path d="M475.03 116.612l-10.87-7.453h-14v9.968h23.397zM457.625 84.33l-7.465 10.853v13.976h14l9.19-15.653zM432.708 62.854l10.92 7.5h13.997V56.38L441.9 47.202z"></path><path d="M450.16 95.184l7.465-10.854V70.354h-13.998L434.434 86zM457.625 84.33l15.725 9.178 1.728-2.95V72.71l-3.453-2.358h-14z"></path><path d="M457.625 70.354h14l3.453-5.897v-13.15l-9.988-5.83-7.465 10.903zM440.22 24.05l10.873 7.454h13.998V17.53L449.415 8.35z"></path><path d="M457.625 56.38l7.466-10.9V31.503h-13.997l-9.193 15.7z"></path><path d="M465.09 45.478l9.987 5.828V31.504h-9.986zM475.077 8.145l-2.52-1.47-7.466 10.854v13.974h9.987z" fill="#FFDB69"></path><path d="M472.558 6.676V6.58h-22.11l-1.034 1.77 15.677 9.18zM472.558 6.676l2.52 1.47V6.58h-2.52zM391 119.128l-2.947-1.724-1.012 1.724zM417.15 119.128l-5.907-3.448-2.362 3.448zM386.373 94.252l10.872 7.453h13.998V87.73l-15.68-9.176z"></path><path d="M388.052 117.404l2.948 1.724h17.88l2.363-3.448v-13.975h-13.998z" fill="#FEEABD"></path><path d="M411.243 115.68l5.907 3.448h13.175l5.837-9.97-10.92-7.453h-14zM418.71 76.83l-7.467 10.9v13.975h14L434.433 86zM393.84 55.402l10.87 7.452h14V48.88l-15.68-9.13z"></path><path d="M411.243 87.73l7.466-10.9V62.854h-14l-9.147 15.7zM443.627 70.354l-10.92-7.5H418.71V76.83L434.433 86zM426.222 38.026L418.71 48.88v13.974h13.998l9.192-15.65zM401.305 16.598l10.92 7.453h13.997V10.077l-5.987-3.495H407.17z"></path><path d="M418.71 48.88l7.512-10.854V24.05h-13.998l-9.193 15.7zM451.093 31.505L440.22 24.05h-13.998v13.976l15.678 9.177zM426.222 10.076V24.05h14l9.192-15.7-3.033-1.77h-17.765zM426.222 10.076l2.393-3.495h-8.38z"></path><path d="M449.414 8.35l1.035-1.77h-4.07zM364.862 119.128v-.047l-2.52-1.474v1.522zM388.052 117.403l-15.68-9.177-7.51 10.855v.048h22.177zM372.373 94.252V80.277l-10.03-5.854v19.83z"></path><path d="M372.373 108.226V94.252h-10.03v23.354l2.52 1.475zM397.245 101.705l-10.872-7.453h-14v13.975l15.68 9.177z" fill="#FDFDB3"></path><path d="M379.84 69.376l-7.467 10.9v13.976h14l9.19-15.698zM362.342 53.014l3.498 2.387h14V41.428l-15.725-9.178-1.773 3.023z"></path><path d="M362.343 61.376v13.047l10.03 5.854 7.467-10.9V55.4h-14zM404.71 62.854l-10.87-7.452h-14v13.975l15.724 9.177z"></path><path d="M387.305 30.572l-7.466 10.855v13.975h14l9.19-15.652zM387.305 16.598V6.58h-23.39l-1.48 2.518 10.872 7.5z"></path><path d="M379.84 41.427l7.465-10.854V16.598h-13.998l-9.192 15.65z"></path><path d="M412.224 24.05l-10.92-7.452h-14v13.975l15.727 9.176zM387.305 16.598h14L407.17 6.58h-19.865zM365.84 55.402l-3.498-2.388v8.362zM364.115 32.25l-1.773-1.037v4.06zM373.307 16.598l-10.872-7.5h-.093v22.115l1.773 1.037z"></path><path d="M362.342 9.098h.093l1.48-2.517h-1.573z" fill="#FFB39E"></path></g><g fill="#7d287d" stroke="#000"><path d="M483.767 119.128l-.337-1.258-2.38-.688v1.946zM502.145 119.128l-4.716-1.258-1.313 1.258zM506.948 96.442l-9.52-2.75-7 12.113h14l3.967-3.96z"></path><path d="M490.57 86.845l-7.14 6.848 7 12.112 7-12.112-1.448-5.404zM490.43 105.806l-7-12.113-2.38-.635v12.748zM481.05 117.182l2.38.688 7-12.064h-9.38z"></path><path d="M497.43 117.87l-7.002-12.064-6.998 12.064.337 1.258h12.35zM506.807 115.4l-2.38-9.595H490.43l7 12.065 5.412 1.443zM500.09 65.37l-9.52-2.748-7 12.112h14l3.965-3.96zM481.05 70.372l2.52 4.362 7-12.112-1.446-5.404-5.415-1.446-2.66 2.553zM483.57 74.734l-2.52-4.36v4.36zM481.05 79.095l2.52-4.36h-2.52z"></path><path d="M490.57 86.845l-7-12.11-2.52 4.36v13.963l2.38.635zM499.95 84.33l-2.38-9.596h-14l7 12.11 5.412 1.446zM481.05 43.71h9.66l3.966-3.96-1.447-5.404-9.52-2.75-2.66 4.604z"></path><path d="M483.71 31.597l-1.446-5.403-1.214-.324V36.2zM483.71 55.772l-2.66-4.584v7.137z"></path><path d="M481.05 51.188l2.66 4.585 5.414 1.445 3.964-3.96-2.38-9.55h-9.658zM487.817 8.68l-.562-2.1h-6.205v6.058h2.8zM486.23 22.235l-2.38-9.597h-2.8V25.87l1.214.324zM537.28 106.038l-9.475-2.75-6.998 12.113h13.998l3.966-3.96z" fill="#ED5483#01B7D5"></path><path d="M520.947 96.442l-7.14 6.847 7 12.11 6.998-12.11-1.445-5.405zM504.427 105.805l2.38 9.596h14l-7-12.11-5.412-1.445z"></path><path d="M503.03 119.128h15.615l2.162-3.727h-14zM522.97 119.128l-2.163-3.727-2.162 3.728z"></path><path d="M522.97 119.128h12.74l-.905-3.727h-13.998zM530.418 74.967l-9.47-2.75-7 12.113h13.998l3.968-3.96zM514.087 65.37l-7.14 6.848 7 12.112 7-12.112-1.447-5.405z"></path><path d="M497.57 74.734l2.38 9.596h13.997l-7-12.112-5.412-1.445zM497.43 93.693l9.518 2.75 7-12.113h-14l-3.966 3.96z"></path><path d="M513.807 103.29l7.14-6.848-7-12.112-7 12.112 1.448 5.403z"></path><path d="M530.28 93.926l-2.334-9.596h-14l7 12.112 5.414 1.444zM523.56 43.942l-9.473-2.748-7 12.065h14l3.965-3.914zM507.227 34.346l-7.138 6.848 6.997 12.065 7-12.066-1.446-5.404z"></path><path d="M490.71 43.71l2.38 9.55h13.997l-6.998-12.066-5.414-1.444z"></path><path d="M490.57 62.622l9.52 2.75 6.997-12.113H493.09l-3.966 3.958z"></path><path d="M506.948 72.218l7.14-6.847-7-12.11-7 12.11 1.447 5.403zM523.42 62.854l-2.333-9.595h-14l7 12.11 5.413 1.444zM516.7 12.87l-9.473-2.747-6.998 12.11h13.997l3.967-3.958z"></path><path d="M507.227 10.123l-.946-3.542h-9.36l-3.69 3.543 7 12.11zM483.85 12.638l2.38 9.596h14l-7-12.11-5.413-1.446zM483.708 31.597l9.52 2.75 7-12.113h-14l-3.964 3.96z"></path><path d="M500.09 41.194l7.137-6.848-6.998-12.112-7 12.112 1.446 5.404zM516.56 31.83l-2.333-9.596H500.23l6.997 12.112 5.414 1.444zM487.818 8.68l5.41 1.443 3.692-3.542h-9.665zM568.59 119.128l-.934-3.495-9.52-2.747-3.608 6.242zM547.745 119.128h6.783l3.608-6.242-1.445-5.405-5.413-1.442-7.14 6.848z"></path><path d="M544.138 112.885l-5.367-1.445-3.965 3.96.906 3.728h12.035zM560.796 84.562l-9.52-2.75-6.998 12.114h13.998l3.968-3.96z"></path><path d="M544.418 74.967l-7.14 6.846 7 12.113 7-12.113-1.448-5.402zM527.946 84.33l2.333 9.596h13.998l-7-12.113-5.364-1.443zM527.805 103.29l9.474 2.748 6.998-12.112h-14l-3.918 3.96z"></path><path d="M544.138 112.885l7.14-6.847-7-12.112-7 12.112 1.493 5.402z" fill="#FFDB69"></path><path d="M560.656 103.52l-2.38-9.594h-13.998l7 12.112 5.413 1.443zM553.938 53.538l-9.52-2.748-7 12.064h14l3.965-3.912z" fill="#2ED031"></path><path d="M537.558 43.942l-7.14 6.848 7 12.064 7-12.064-1.447-5.404z" fill="#2D9781"></path><path d="M521.087 53.26l2.333 9.594h13.998l-7-12.064-5.366-1.444zM520.947 72.218l9.47 2.75 7-12.114H523.42l-3.92 3.96zM537.28 81.813l7.138-6.846-7-12.113-7 12.113 1.496 5.403zM553.796 72.45l-2.38-9.596H537.42l7 12.113 5.412 1.444zM547.078 22.467l-9.52-2.748-7 12.11h14l3.966-3.96z"></path><path d="M530.7 12.87l-7.14 6.85 6.998 12.11 7-12.11-1.445-5.406zM514.227 22.234l2.333 9.596h13.998l-6.998-12.11-5.366-1.447z"></path><path d="M514.087 41.194l9.473 2.748 6.998-12.112H516.56l-3.92 3.96z"></path><path d="M530.418 50.79l7.14-6.848-7-12.112-6.998 12.112 1.492 5.404z"></path><path d="M546.938 41.427l-2.38-9.597h-14l7 12.112 5.413 1.444zM507.227 10.123l9.474 2.747 3.635-6.29H506.28z"></path><path d="M516.7 12.87l1.494 5.403 5.366 1.446 7.14-6.85-3.635-6.29h-6.73z" fill="#FCFCA1"></path><path d="M540.077 10.354l-.935-3.773h-12.077l3.634 6.29 5.413 1.444zM587.616 119.128l-.55-2.05-5.412-1.445-3.644 3.495zM591.173 94.16l-9.52-2.75-6.997 12.11h13.998l3.966-3.958z"></path><path d="M574.795 84.562l-7.14 6.848 7 12.11 7-12.11-1.447-5.41z"></path><path d="M558.276 93.926l2.38 9.595h14l-7-12.11-5.412-1.444zM558.136 112.885l9.52 2.748 7-12.112h-14l-3.965 3.96z"></path><path d="M581.654 115.634l-6.998-12.113-7 12.114.935 3.495h9.42z"></path><path d="M591.034 113.118l-2.38-9.597h-13.998l6.998 12.113 5.413 1.445zM584.314 63.135l-9.52-2.75-6.998 12.066h13.998l3.967-3.912z"></path><path d="M567.936 53.538l-7.14 6.848 7 12.065 7-12.064-1.448-5.405z"></path><path d="M551.417 62.854l2.38 9.597h14l-7-12.064-5.414-1.444zM551.277 81.813l9.52 2.75 7-12.112h-14l-3.967 3.96z"></path><path d="M567.656 91.41l7.14-6.848-7-12.11-7 12.11 1.448 5.405z"></path><path d="M584.174 82.047l-2.38-9.596h-13.998l7 12.112L580.207 86zM577.457 32.062l-9.52-2.75-7 12.115h14l3.964-3.96zM561.076 22.467l-7.138 6.846 6.998 12.114 7-12.114-1.447-5.402z"></path><path d="M544.558 31.83l2.38 9.597h13.998l-6.998-12.114-5.414-1.443zM544.418 50.79l9.52 2.747 6.998-12.11h-13.998l-3.967 3.96z"></path><path d="M560.796 60.386l7.14-6.85-7-12.11-6.998 12.11 1.445 5.406z"></path><path d="M577.316 51.02l-2.38-9.593h-14l7 12.11 5.412 1.446zM554.078 10.354h13.998l3.78-3.773h-15.59z"></path><path d="M554.078 10.354l2.188-3.773h-4.378z"></path><path d="M540.078 10.354h14l-2.19-3.773h-12.746zM537.558 19.718l9.52 2.748 7-12.112h-14l-3.965 3.96z"></path><path d="M553.938 29.313l7.138-6.847-6.998-12.112-7 12.112 1.446 5.404zM570.455 19.95l-2.38-9.596H554.08l6.998 12.112 5.413 1.445zM593.787 99.874l-1.168-.312-3.966 3.96 2.38 9.597h2.753z" fill="#F7F3DB"></path><path d="M593.787 119.128v-6.01h-2.753l-3.966 3.96.55 2.05zM593.787 74.487v-7.012l-2.614 2.506z"></path><path d="M584.174 82.048h9.612v-7.56l-2.613-4.508-5.412-1.442-3.966 3.914z"></path><path d="M580.208 86l1.446 5.41 9.518 2.75 2.615-4.522v-7.59h-9.613zM592.62 99.562l1.167.312V89.638l-2.614 4.522zM593.787 51.02v-4.276l-2.473 4.277z"></path><path d="M593.786 32.685l-2.33-.623-7.142 6.85 7 12.11 2.472-4.278z"></path><path d="M574.936 41.426l2.38 9.595h13.998l-7-12.11-5.413-1.444zM574.794 60.385l9.52 2.75 7-12.114h-13.998l-3.968 3.96zM585.76 68.54l5.413 1.44 2.613-2.505V55.302l-2.472-4.28-7 12.113zM593.787 55.302v-4.28h-2.473zM593.787 19.95V8.526l-2.332-.685-7 12.11z"></path><path d="M591.455 7.84l-.34-1.26h-12.34l-1.32 1.26 7 12.112z"></path><path d="M568.076 10.354l2.38 9.597h14l-7-12.11-5.414-1.445zM567.935 29.313l9.52 2.75 7-12.112h-14l-3.966 3.96z" fill="#231E2E"></path><path d="M584.314 38.91l7.14-6.848-7-12.11-7 12.11 1.447 5.405zM591.455 32.062l2.332.624V19.95h-9.332zM577.455 7.84l1.32-1.26h-6.035zM591.455 7.84l2.332.683V6.58h-2.673z"></path></g><g fill="#b9539f" stroke="#000"><path d="M118.95 235.4v-12.2l-4.852-1.54-10.59 13.74zM118.95 198.762v-1.937l-1.26 1.635zM93.746 235.4l-8.672-16.07L72.69 235.4zM88.667 196.13l5.69 12.765h14l9.333-10.435L105 174.935z"></path><path d="M85.074 219.33l9.285-10.435-5.693-12.765-13.345-4.24-16.333 21.197z"></path><path d="M85.075 219.33l8.67 16.07h9.763l10.59-13.74-5.74-12.765h-14z"></path><path d="M118.95 198.762l-1.26-.303-9.333 10.435 5.74 12.764 4.854 1.54zM114.33 164.5h4.62v-26.19l-10.358 13.473z" fill="#231E2E"></path><path d="M105 174.935l9.33-10.435-5.738-12.717-13.346-4.24-16.332 21.196zM118.95 196.825V164.5h-4.62L105 174.936l12.69 23.525zM98.885 124.345l20.066 4.775v-6.266h-18.92zM27.107 235.4l-.78-1.443-1.115 1.443zM29.966 210.758l5.692 12.763h14l9.33-10.433-12.692-23.525z"></path><path d="M6.213 229.135l20.112 4.82 9.333-10.434-5.694-12.762-13.343-4.24-10.407 13.505z"></path><path d="M55 235.4l-5.343-11.88h-14l-9.33 10.437.78 1.443z"></path><path d="M85.074 219.33l-26.085-6.243-9.333 10.434L55 235.4h17.69zM49.89 166.41l5.693 12.717h14l9.332-10.388-12.692-23.572z" fill="#F79E7B"></path><path d="M46.296 189.562l9.287-10.435-5.693-12.717-13.346-4.24-16.332 21.197z"></path><path d="M75.322 191.89l-5.74-12.763h-14l-9.286 10.435 12.693 23.524z" fill="#E5625C"></path><path d="M78.914 168.74l-9.333 10.387 5.742 12.764 13.345 4.24L105 174.935zM98.885 124.345l-.806-1.49H70.19l5.365 11.925h13.998z"></path><path d="M75.555 134.78l-5.364-11.926H52.56l-12.42 16.118 26.085 6.196z"></path><path d="M95.246 147.544l-5.692-12.764h-14l-9.33 10.388 12.69 23.57zM95.246 147.544l13.346 4.24 10.36-13.475v-9.19l-20.067-4.775-9.33 10.435z"></path><path d="M98.886 124.345l1.145-1.49H98.08zM25.21 235.4l1.115-1.443-20.112-4.822v6.265zM20.212 183.367l-12.69-23.572-1.31 1.7v32.26h4.668z"></path><path d="M6.213 220.023l10.408-13.505-5.74-12.764H6.213z"></path><path d="M20.212 183.367l-9.332 10.387 5.74 12.764 13.346 4.242 16.33-21.2zM11.114 136.643l5.74 12.764H30.85l9.286-10.435-8.698-16.118h-9.702z"></path><path d="M11.114 136.643l-4.9-1.556v24.398l1.307.31 9.333-10.388z"></path><path d="M36.543 162.17l-5.69-12.763h-14L7.52 159.795l12.692 23.57z" fill="#231E2E"></path><path d="M40.138 138.973l-9.286 10.434 5.692 12.764 13.346 4.24 16.333-21.242zM40.138 138.972l12.42-16.118H31.44zM7.52 159.795l-1.307-.31v2.01zM6.213 135.087l4.9 1.556 10.625-13.79H6.213z"></path></g><g fill="#6abd45" stroke="#000"><path d="M135.98 129.562l4.208-6.708h-15.266v4.91l4.48 2.17zM124.924 132.752v7.27l5.785 2.072 13.905-1.537-8.633-10.995-6.58.373zM129.4 129.935l-4.478-2.17v4.987zM124.922 176.616l2.893-.144 7.42-11.878H124.92zM124.922 188.703l11.574-1.236-8.68-10.995-2.894.144z"></path><path d="M135.234 164.594l-8.63-10.994-1.682-.705v11.7z" fill="#FFB39E"></path><path d="M130.708 142.093l-5.786-2.07v12.872l1.68.705 13.906-1.538zM124.922 214.914l2.146-3.458h-2.146zM128.33 234.33l-3.408-4.34v4.703zM127.068 211.456l-2.146-2.733v2.733zM132.343 198.973l-7.42-7.584v8.378zM162.58 135.71l6.58-.37 7.42-11.88h-14l-12.6 6.102z"></path><path d="M162.58 135.71l6.58-.37 8.678 10.993-13.952 1.49-13.158-4.705z"></path><path d="M144.615 140.557l6.113 2.562 11.852-7.41-12.6-6.148h-14zM144.614 140.557l6.114 2.562 2.94 13.647-13.16-4.705-9.8-9.968z"></path><path d="M162.58 123.46l-1.25-.606h-21.142l-4.207 6.708h14z"></path><path d="M162.58 123.46h14l-.476-.606H161.33zM154.414 182.574l6.625-.372 7.373-11.88h-14l-12.6 6.15zM154.414 182.574l6.626-.372 8.63 10.994-13.902 1.536-13.207-4.75z"></path><path d="M136.496 187.467l6.065 2.515 11.854-7.407-12.6-6.103h-13.998z"></path><path d="M124.922 191.39l7.42 7.583 13.205 4.705-2.986-13.698-6.064-2.513-11.574 1.236zM141.814 164.22l-6.58.374-7.418 11.878h13.998l12.6-6.15zM141.813 164.22l-6.58.374-8.63-10.994 13.905-1.538 13.16 4.705z"></path><path d="M159.78 159.33l-6.113-2.563-11.853 7.454 12.6 6.104h14z"></path><path d="M159.78 159.33l-6.113-2.563-2.94-13.65 13.16 4.706 9.8 10.016zM146.248 229.438l6.626-.374 7.373-11.832h-14l-12.55 6.103z"></path><path d="M136.766 235.4h21.083l-4.976-6.336-6.626.374z"></path><path d="M133.696 223.336h-8.774v6.655l3.408 4.338 2.538 1.072h5.898l9.482-5.962z"></path><path d="M124.922 235.4h5.946l-2.538-1.07-3.408.363zM124.924 214.914v8.42h8.773l12.55-6.102-12.55-6.15-6.628.374z"></path><path d="M124.922 208.725l2.146 2.73 6.628-.37 11.85-7.407-13.203-4.705-7.42.795z"></path><path d="M151.614 206.24l-6.067-2.562-11.85 7.406 12.55 6.148h14z"></path><path d="M151.614 206.24l-6.067-2.562-2.986-13.696 13.208 4.75 9.75 9.97zM195.755 141.44l6.628-.37 7.37-11.834h-13.998l-12.597 6.103z"></path><path d="M195.757 141.44l6.627-.372 8.632 10.994-13.907 1.538-13.205-4.705z"></path><path d="M177.838 146.333l6.067 2.562 11.852-7.455-12.6-6.1H169.16z"></path><path d="M177.838 146.333l6.067 2.562 2.986 13.65-13.205-4.706-9.8-10.017zM183.158 123.087l-6.58.373-7.42 11.88h14l12.6-6.104z"></path><path d="M176.58 123.46l6.578-.373.373-.233h-7.427z"></path><path d="M209.755 129.236l-5.01-6.382H183.53l-.372.233 12.6 6.15zM187.59 188.305l6.627-.326 7.37-11.88h-13.996l-12.55 6.102zM187.592 188.305l6.626-.326 8.632 10.993-13.907 1.49-13.204-4.705z"></path><path d="M169.67 193.196l6.068 2.562 11.853-7.453-12.552-6.103H161.04z" fill="#000F2A"></path><path d="M169.67 193.196l6.07 2.562 2.985 13.65-13.205-4.706-9.753-9.97zM175.04 169.997l-6.627.326-7.373 11.88h14l12.55-6.103z"></path><path d="M175.038 169.996l-6.626.328-8.632-10.995 13.905-1.49 13.206 4.704zM192.956 165.105l-6.064-2.56-11.853 7.452 12.552 6.103h13.996z"></path><path d="M192.956 165.105l-6.065-2.56-2.985-13.65 13.204 4.705 9.753 9.97zM179.472 235.168l6.58-.326 7.42-11.88h-14l-12.6 6.102z"></path><path d="M179.1 235.4h7.39l-.44-.558-6.578.326z"></path><path d="M179.472 235.168l-12.6-6.104h-13.998l4.975 6.336h21.25z"></path><path d="M166.873 216.86l-6.626.372-7.373 11.832h14l12.598-6.1z"></path><path d="M166.873 216.86l-6.626.374-8.633-10.994 13.906-1.538 13.205 4.705z"></path><path d="M184.79 211.97l-6.065-2.563-11.852 7.452 12.6 6.103h13.998z"></path><path d="M184.79 211.97l-6.065-2.563-2.986-13.65 13.204 4.706 9.8 10.016zM216.382 141.068l12.552 6.15 6.626-.372 2.1-3.383v-8.496h-8.726z"></path><path d="M217.08 154.624l13.208 4.705 7.37-.79v-9.022l-2.098-2.673-6.626.373z"></path><path d="M211.016 152.062l6.065 2.563 11.854-7.407-12.554-6.15h-13.996z" fill="#F94B19"></path><path d="M211.016 152.062l6.066 2.563 2.985 13.648-13.204-4.704-9.754-9.97zM216.38 128.864l-6.626.372-7.37 11.833h13.996l12.553-6.104zM209.754 129.236l6.626-.372 9.52-6.01h-21.156z"></path><path d="M231.63 122.854h-5.73l-9.52 6.01 12.554 6.102h8.725v-6.715l-3.36-4.277zM234.3 123.973l3.36-.36v-.76h-6.03zM220.813 194.08l6.58-.372 7.42-11.88h-14l-12.6 6.15zM220.814 194.08l6.58-.372 8.632 10.994-13.905 1.538-13.158-4.752z"></path><path d="M202.85 198.973l6.11 2.513 11.853-7.406-12.6-6.1h-13.996zM202.85 198.973l6.112 2.515 2.94 13.696-13.16-4.705-9.8-10.016zM208.216 175.727l-6.628.373-7.37 11.88h13.998l12.597-6.15z"></path><path d="M208.216 175.727l-6.628.373-8.63-10.995 13.905-1.537 13.204 4.704zM226.134 170.836l-6.067-2.563-11.85 7.454 12.597 6.102h14z"></path><path d="M226.134 170.836l11.525-1.233v-2.74l-7.373-7.534-13.205-4.705 2.985 13.648zM222.47 235.4l4.176-6.66h-14l-12.596 6.102 1.154.558z"></path><path d="M186.49 235.4h14.714l-1.155-.558h-14z"></path><path d="M200.05 222.59l-6.58.373-7.42 11.88h14l12.598-6.104z"></path><path d="M200.05 222.59l-6.58.373-8.68-10.994 13.953-1.49 13.158 4.704zM218.015 217.746l-6.114-2.562-11.85 7.406 12.598 6.15h13.998z"></path><path d="M218.015 217.746l-6.115-2.562-2.94-13.696 13.162 4.752 9.797 9.968zM237.66 149.518v-2.672h-2.1zM237.66 166.864v-8.325l-7.372.79zM237.66 146.846v-3.382l-2.1 3.382zM237.66 128.25v-4.637l-3.36.36zM236.026 204.703l1.633.684v-11.68h-10.266z"></path><path d="M237.66 205.387l-1.634-.685-13.905 1.537 9.8 9.967 5.74 2.053zM227.393 193.708h10.267v-12.02l-2.848.14z"></path><path d="M234.813 181.83l2.846-.14v-12.086l-11.526 1.232zM237.66 230.514l-4.433-2.147-6.58.372-4.177 6.66h15.19z"></path><path d="M226.646 228.74l6.58-.372 4.433-2.788v-7.32l-5.74-2.052-13.905 1.538z"></path><path d="M237.66 230.514v-4.935l-4.434 2.788z"></path></g><g fill="#f47f81" stroke="#000"><path d="M350.722 230.93l-10.405-7.873-13.485 3.82v8.523h19.43zM340.317 223.057l10.405 7.873 5.647-10.008v-6.424l-2.615-9.19-13.438 3.772zM310.087 235.4h16.745v-8.523l-12.972 1.768z"></path><path d="M355.18 235.4l-4.46-4.47-4.457 4.47zM355.18 235.4h1.19v-14.478l-5.648 10.008zM356.37 214.5v-9.55l-2.615.357zM243.632 235.4h5.094l-1.41-4.937-3.684 1.03zM273.31 235.4h20.764v-6.755h-14z"></path><path d="M293.56 210.896l10.406 7.874-9.892 9.876h-14V214.67z"></path><path d="M293.56 210.896l10.406 7.874 6.862-12.206-3.782-13.462-13.486 3.82zM260.29 228.645l6.767 6.755h6.252l6.766-6.755v-13.973l-12.973 1.77zM248.727 235.4h18.33l-6.766-6.754-12.973 1.817zM313.86 228.645l-9.894-9.875-9.892 9.875v6.755h16.015z"></path><path d="M313.86 228.645l12.972-1.77-3.78-13.462-12.224-6.85-6.862 12.207zM340.318 209.08l-10.453-7.872 9.892-9.875h13.998v13.976z"></path><path d="M340.317 209.08l-10.452-7.873-6.814 12.206 3.782 13.462 13.485-3.818zM339.757 191.332h13.998l2.614-2.596v-12.798l-3.128-2.355-13.485 3.773zM353.242 173.583l3.127 2.355v-17.214l-3.128.885z"></path><path d="M326.832 179.127l12.925-1.77v13.976l-9.892 9.875-9.893-9.875z"></path><path d="M319.972 191.333l-12.926 1.77 3.782 13.46 12.223 6.85 6.815-12.205zM353.755 205.307l2.614-.355v-16.215l-2.615 2.595zM243.632 231.494l3.685-1.03v-13.976h-3.685zM257.21 206.564l-10.404-7.872-3.174.9v16.896h3.685zM246.806 198.692l10.404 7.872 6.86-12.157-3.78-13.463-13.484 3.775z"></path><path d="M260.29 228.646l-12.973 1.817v-13.975l9.893-9.922 9.894 9.875zM267.104 216.44l12.972-1.77-3.78-13.462-12.225-6.8-6.86 12.156zM293.56 196.922l-10.453-7.873 9.893-9.923h14l.046 13.975z"></path><path d="M293.56 196.922l-10.452-7.87-6.812 12.156 3.78 13.463 13.485-3.774zM306.487 161.38l10.452 7.872-9.94 9.875h-14v-13.975z"></path><path d="M306.487 161.38l10.452 7.872 6.81-12.158-3.778-13.463-13.485 3.775zM280.076 166.97L293 165.152v13.975l-9.893 9.922-9.89-9.876zM273.217 179.174l-12.927 1.77 3.78 13.463 12.226 6.8 6.812-12.156zM319.972 191.333l-12.926 1.77-.046-13.976 9.94-9.875 9.892 9.875zM326.832 179.127l12.925-1.77-3.78-13.463-12.226-6.8-6.81 12.157zM356.37 158.724v-16.912h-3.64l-9.895 9.925 10.407 7.873z"></path><path d="M353.242 159.61l-10.407-7.874-6.858 12.158 3.78 13.462 13.485-3.773zM352.73 141.812h3.64v-14.995l-3.64 1.022zM339.757 129.656l12.972-1.817v13.973l-9.895 9.923-9.938-9.923z"></path><path d="M332.898 141.813l-12.926 1.818 3.78 13.464 12.225 6.8 6.858-12.157zM243.632 169.612v12.716l3.174 2.39 13.485-3.774V166.97h-13.998zM246.806 198.692V184.72l-3.174-2.392v17.264zM259.73 149.22l10.454 7.874-9.894 9.875h-13.998l-.046-13.976z"></path><path d="M259.73 149.222l10.454 7.872 6.813-12.205-3.78-13.463-13.488 3.818zM243.632 169.612l2.66-2.642-.046-13.976-2.614.358zM273.217 179.174l-12.927 1.77V166.97l9.894-9.876 9.892 9.875z"></path><path d="M280.076 166.97L293 165.15l-3.777-13.416-12.226-6.848-6.814 12.205zM306.487 147.405l-10.406-7.873 9.893-9.876h14v13.975z" fill="#00A0AC"></path><path d="M306.487 147.404l-10.407-7.873-6.857 12.206L293 165.152l13.487-3.773zM305.973 129.655h14l6.814-6.8h-20.814zM305.973 129.655v-6.8h-15.99l-3.795 6.8 9.893 9.876zM286.187 129.656l-12.97 1.77 3.78 13.463 12.226 6.847 6.857-12.205z" fill="#E5625C"></path><path d="M319.972 129.655v13.976l12.926-1.818 6.86-12.157-6.813-6.8h-6.158z" fill="#DE619C"></path><path d="M339.755 129.655l12.974-1.816-1.424-4.986h-18.36zM352.73 127.84l3.64-1.023v-3.963h-5.063zM246.246 152.994l-2.614-9.306v9.664zM273.216 131.426v-8.572h-19.41l-4.48 4.472 10.404 7.92z"></path><path d="M243.632 143.688l2.614 9.307 13.483-3.773v-13.976l-10.404-7.92-5.694 10.128z"></path><path d="M249.325 127.326l4.48-4.472h-8.96z"></path><path d="M243.632 137.454l5.694-10.128-4.48-4.472h-1.214zM273.216 131.426l12.972-1.77 3.796-6.802h-16.768z"></path></g><g fill="#fff" stroke="#000"><path d="M371.58 175.726l-9.238-11.19v16.19zM363.414 224.967l2.8-21.802-3.872-4.69v25.914z"></path><path d="M366.166 235.4l-2.752-10.433-1.072-.578v11.01zM382.592 125.648l-1.432-2.794h-18.818v15.177l17.404 9.42zM382.592 125.648l19.366 10.436 1.698-13.23H381.16zM362.342 198.475l3.872 4.69 12.273-3.54 13.998-16.957-20.905-6.942-9.238 5z"></path><path d="M366.214 203.164l-2.8 21.803 21.93-1.4 14-17.003-20.857-6.94zM404.71 179.127l2.847-21.8-21.977 1.443-14 16.957 20.905 6.94z"></path><path d="M404.71 179.127l14 17.003-19.365 10.434-20.858-6.94 13.998-16.956zM391.18 234.89l-5.836-11.324-21.93 1.4 2.752 10.434h24.948z"></path><path d="M391.18 234.89l.946.51h19.698l1.52-11.832-14-17.004-14 17.004zM385.58 158.77l21.977-1.444-5.6-21.242-19.365-10.436-2.846 21.802z"></path><path d="M379.746 147.45l-17.404-9.42v26.506l9.238 11.19 14-16.956zM392.127 235.4l-.948-.51-.066.51zM401.958 136.084l21.93-1.398 9.743-11.832h-29.973z"></path><path d="M423.888 134.686l-21.93 1.398 5.6 21.243 19.364 10.48 2.8-21.807z" fill="#E5625C"></path><path d="M423.888 134.686L429.722 146l19.364 10.488 2.8-21.802-9.74-11.832h-8.515zM413.343 223.568l-13.998-17.004 19.364-10.434 20.904 6.94-13.998 16.957z"></path><path d="M446.52 226.97l-20.905-6.943-12.272 3.54-1.52 11.833h27.736zM451.886 199.53l2.8-21.8-21.978 1.397-14 17.003 20.906 6.94z"></path><path d="M451.886 199.53l14 16.958-19.366 10.48-20.904-6.94 13.998-16.956zM453.48 235.4l-6.96-8.43-6.96 8.43zM432.708 179.128l21.978-1.398-5.6-21.242L429.722 146l-2.8 21.807z"></path><path d="M432.708 179.127l-14 17.003-13.998-17.003 2.847-21.8 19.365 10.48zM451.886 134.686l12.273-3.54 6.84-8.292h-28.855z"></path><path d="M449.086 156.49l21.98-1.446 4.012-4.86V134.77l-10.92-3.624-12.272 3.54z"></path><path d="M464.16 131.146l10.917 3.625v-11.916H471zM454.686 177.73l19.365 10.482 1.028-7.858v-17.492l-4.013-7.818-21.98 1.444z"></path><path d="M475.078 162.862v-12.68l-4.013 4.862zM475.078 219.54l-9.193-3.052-19.365 10.48 6.96 8.432h21.598zM475.078 219.54v-14.186l-9.192 11.134zM475.078 190.203v-9.85l-1.027 7.86z"></path><path d="M465.886 216.488l9.192-11.134v-15.15l-1.027-1.99-19.364-10.485-2.8 21.802z"></path></g><g fill="#818181" stroke="#000"><path d="M481.05 235.4H486l-2.056-6.01-2.894.988zM488.05 218.77l-3.405-9.875-3.595-2.577v12.452z" fill="#FCB7B1"></path><path d="M489.17 222.077l-1.12-3.307h-7v11.603l2.894-.98zM495.143 208.895l-4.527-13.23-9.566 3.263v7.39l3.595 2.577zM499.108 218.723V232.7h14l-3.407-9.925-7.28-5.216z"></path><path d="M485.11 232.7h13.998v-13.975l-9.94 3.353-5.224 7.313zM486.03 235.4h13.078v-2.7H485.11zM499.108 235.4h14.915l-.915-2.7h-14zM502.422 214.066l13.252-4.52 4.526 13.23h-10.5l-7.278-5.217zM524.167 235.4h8.772l-5.46-3.912-3.313 1.117z"></path><path d="M524.167 235.4v-2.795l-8.17 2.795zM544.81 235.4l-4.08-11.925-13.25 4.52v3.493l5.46 3.912zM491.27 175.167l-7.28-5.217-2.94.993v14.1h13.626zM495.795 188.35l-1.12-3.307H481.05v13.85l9.566-3.228z"></path><path d="M483.99 166.457l13.253-4.52 4.525 13.23h-10.5l-7.277-5.216zM505.735 184.997v13.976h13.998l-3.405-9.922-7.282-5.218zM491.737 198.973h13.998v-13.976l-9.94 3.355-5.18 7.312zM505.735 212.947v-13.974h-13.998l3.406 9.922 7.28 5.17z"></path><path d="M519.733 198.973h-13.998v13.974l9.938-3.4 5.18-7.267zM509.047 180.34l13.252-4.52 4.526 13.23h-10.498l-7.28-5.217zM502.422 217.56l-13.252 4.518-4.526-13.183h10.5l7.278 5.17zM530.793 198.88v13.974h14l-3.408-9.875-7.28-5.218z"></path><path d="M516.793 212.854h14V198.88l-9.94 3.4-5.18 7.267zM530.793 226.83v-13.976h-14l3.407 9.92 7.28 5.22z" fill="#F94B19"></path><path d="M544.792 212.854h-14v13.975l9.94-3.355 5.18-7.268zM534.106 194.268l13.252-4.52 4.526 13.23h-10.5l-7.278-5.216zM514.02 235.4H516l11.48-3.912v-3.494l-7.28-5.217h-10.5zM555.85 212.807v13.976h14l-3.408-9.922-7.278-5.17z"></path><path d="M541.852 226.783h13.998V212.81l-9.94 3.398-5.18 7.267zM544.81 235.4h11.04v-8.617h-13.998z"></path><path d="M570.968 230.092l-1.118-3.31h-14v8.618h11.334zM559.164 208.148l13.252-4.517 4.525 13.23h-10.498l-7.278-5.17zM591.5 230.79l-7.28-5.218-3.312 1.117v8.71h12.182z"></path><path d="M567.184 235.4h13.724v-8.71l-9.94 3.4zM593.787 230.79v-11.974l-9.567 3.262v3.495l7.28 5.216zM481.05 127.513h2.334l-1.595-4.66h-.74zM487.303 137.34v13.977H501.3l-3.358-9.877-7.278-5.216zM481.05 151.317h6.253V137.34l-6.253 2.15zM487.303 165.293v-13.975h-6.253v13.03l2.94 2.11zM501.3 151.317h-13.997v13.975l9.94-3.354 5.226-7.267zM490.664 132.73l13.25-4.518 4.527 13.228h-10.498l-7.278-5.216z"></path><path d="M483.99 169.95v-3.494l-2.94-2.107v6.603zM512.36 151.27v13.975h14l-3.36-9.92-7.28-5.172zM498.362 165.245h13.998V151.27l-9.89 3.4-5.227 7.268zM512.36 179.22v-13.975h-13.998l3.406 9.922 7.28 5.172zM526.36 165.245h-14v13.976l9.938-3.4 5.228-7.266zM515.72 146.613l13.253-4.52 4.527 13.23H523l-7.28-5.17z"></path><path d="M509.047 183.833l-13.252 4.52-4.526-13.185h10.498l7.28 5.17zM537.418 165.152v13.975h14l-3.36-9.875-7.28-5.217zM523.42 179.127h13.998v-13.975l-9.892 3.4-5.227 7.268zM537.418 193.102v-13.975H523.42l3.406 9.922 7.28 5.218z" fill="#FDFDB3"></path><path d="M551.417 179.127h-14v13.975l9.94-3.354 5.226-7.268zM540.778 160.54l13.253-4.518 4.526 13.23h-10.5l-7.278-5.217zM534.106 197.762l-13.252 4.518-4.526-13.23h10.498l7.28 5.216zM562.476 179.08v13.977h13.998l-3.358-9.922-7.28-5.172z"></path><path d="M548.477 193.057h14V179.08l-9.894 3.4-5.225 7.268zM562.476 207.03v-13.973h-14l3.408 9.922 7.28 5.168zM576.474 193.057h-13.998v13.974l9.94-3.4 5.226-7.266zM565.835 174.423l13.252-4.518 4.528 13.23h-10.5l-7.28-5.17z"></path><path d="M559.164 211.69l-13.253 4.517-4.525-13.228h10.5l7.28 5.168zM593.787 193.92l-2.893-2.074-3.36 1.164v13.974h6.253zM573.535 206.984h13.998V193.01l-9.89 3.354-5.227 7.267zM587.533 220.96v-13.976h-13.998l3.406 9.875 7.28 5.218zM587.533 220.96l6.254-2.14v-11.836h-6.254z"></path><path d="M590.894 191.846l2.893 2.073v-6.555l-2.893.987zM584.22 225.57l-13.252 4.52-4.526-13.23h10.5l7.278 5.217zM593.08 235.4h.707v-4.61H591.5zM493.975 131.565v-8.71h-12.19l1.6 4.658 7.28 5.217zM493.975 131.565l9.94-3.353 3.818-5.358h-13.758zM490.664 132.73l-7.28-5.216h-2.334V139.5l9.614-3.276zM519.034 131.518h14l-2.977-8.664h-11.023z"></path><path d="M519.034 131.518v-8.664h-11.3l-3.82 5.358 1.122 3.306zM519.034 145.494V131.52h-13.998l3.405 9.92 7.28 5.172zM533.032 131.52h-13.998v13.974l9.938-3.4 5.18-7.267z"></path><path d="M515.72 150.152l-13.25 4.52-4.528-13.232h10.5l7.28 5.172zM544.09 131.473v13.975h14l-3.406-9.922-7.28-5.22z"></path><path d="M530.092 145.448h14v-13.975l-9.94 3.354-5.18 7.267zM544.09 159.423v-13.975h-13.998l3.408 9.876 7.278 5.217zM558.09 145.448h-14v13.975l9.94-3.4 5.18-7.268zM547.404 126.813v3.495l7.28 5.217h10.5l-4.337-12.67h-1.828z"></path><path d="M540.778 164.035l-13.252 4.518-4.526-13.23h10.5l7.278 5.218zM569.148 145.354v13.975h14l-3.407-9.922-7.278-5.17zM555.15 159.33h13.998v-13.976l-9.94 3.4-5.177 7.267zM569.148 173.305V159.33H555.15l3.406 9.922 7.28 5.17zM583.148 159.33h-14v13.975l9.94-3.4 5.18-7.267zM572.462 140.742l13.252-4.518 4.527 13.183h-10.5l-7.278-5.17z"></path><path d="M565.835 177.963l-13.252 4.517-4.526-13.228h10.5l7.278 5.17zM593.787 173.258v-13.833l-9.52 3.212-5.18 7.268 1.12 3.353zM593.787 187.375v-14.117h-13.58l3.407 9.877 7.28 5.217z"></path><path d="M590.894 191.846l-13.252 4.518-4.526-13.23h10.5l7.278 5.218zM547.405 126.813l3.312-1.117v-2.842h-8.84zM550.717 125.696l8.308-2.842h-8.308z" fill="#000F2A"></path><path d="M547.405 126.813l-5.527-3.96h-11.822l4.096 11.974 13.253-4.52zM575.775 125.603h13.998l-.936-2.75h-13.062z"></path><path d="M561.777 125.603h13.998v-2.75h-14.93zM575.775 139.578v-13.975h-13.998l3.406 9.922 7.28 5.218zM589.773 125.603h-13.998v13.975l9.94-3.354 5.226-7.314z"></path><path d="M572.462 144.236l-13.252 4.518-4.526-13.23h10.5l7.278 5.22zM593.787 139.53v-11.585l-2.846.965-5.226 7.314 1.12 3.307z"></path><path d="M590.24 149.407l3.547 2.542v-12.42h-6.954z"></path><path d="M593.787 151.95l-3.546-2.543h-10.5l4.527 13.23 9.52-3.246zM590.94 128.91l2.847-.97v-5.086h-4.926z"></path></g><g fill="#f58020" stroke="#000"><path d="M8.23 351.673l-.01-.187-2.007-1.054v1.24zM81.99 351.673l-6.25-3.307v3.307zM45.054 351.673l-5.804-3.493-6.647 3.493zM58.402 351.673l-.532-.278-.47.278z" fill="#F04141"></path><path d="M44.71 337.093l-5.46-2.888v13.975l5.804 3.493h8.462zM53.516 351.673h3.89l.464-.278-.747-13.976-12.413-6.524v6.197zM20.212 337.885l-11.99-7.22-2.01 1.054v9.38h8.635zM20.212 344.268l-5.365-3.168H6.213v9.332l2.008 1.054z"></path><path d="M14.847 347.48l6.963 4.193h10.794l6.647-3.493v-3.912H20.213zM26.838 333.88l12.412 6.52v3.866H20.212l-5.364-3.166z"></path><path d="M12.855 351.673h8.955l-6.963-4.193-3.313 2.004z"></path><path d="M8.23 351.673h4.625l-1.32-2.19-3.314 2.003zM8.22 330.664l11.992 7.22 3.313-2.003-9.845-16.303-5.46-2.888zM26.092 319.902l.746 13.976-3.313 2.003-9.845-16.303v-6.196z"></path><path d="M6.213 331.72l2.008-1.056v-3.867H6.214zM8.22 326.797v-3.912l-2.007-1.055v4.967zM88.152 334.11l-12.41 6.523v3.866H94.78l5.366-3.214zM75.74 348.366l6.25 3.307h11.58l6.575-3.96-5.365-3.214H75.74z"></path><path d="M118.95 351.673v-3.96h-18.805l-5.365 3.215 1.244.745z"></path><path d="M106.77 337.28l12.414 6.568v3.866h-19.038L94.78 344.5zM96.024 351.673l-1.244-.745-1.234.745z"></path><path d="M88.152 334.11l11.994 7.175 3.312-2.003-9.845-16.26-5.46-2.886zM106.024 323.352l.747 13.927-3.312 2.002-9.845-16.26v-6.193zM57.123 316.596l-12.413 6.522v3.866h19.04l5.365-3.168zM57.123 337.42l-12.413-6.524v-3.912h19.04l5.365 3.214z"></path><path d="M75.74 340.633l12.412-6.522V330.2H69.115l-5.366 3.214zM75.74 319.81l12.412 6.522v3.866H69.115l-5.366-3.214z"></path><path d="M75.74 340.633l-11.992-7.22-3.313 2.003 9.847 16.257h5.46z"></path><path d="M70.282 351.673l-9.846-16.257-3.313 2.003.747 13.975.532.278zM57.123 316.596l11.992 7.22 3.313-2.003-9.846-16.303-5.46-2.89zM74.994 305.835l.747 13.976-3.312 2.003-9.846-16.303v-6.197zM26.093 299.08l-12.413 6.522v3.914h19.04l5.364-3.215zM26.093 319.902l-12.413-6.52v-3.866h19.04l5.364 3.166z" fill="#F79E7B"></path><path d="M44.71 323.118l12.413-6.522v-3.914h-19.04l-5.364 3.214zM44.71 302.294l12.413 6.522v3.866h-19.04l-5.364-3.166z"></path><path d="M44.71 323.117l-11.99-7.22-3.314 2.003 9.845 16.304 5.46 2.89z"></path><path d="M26.84 333.878l-.747-13.976 3.313-2.002 9.845 16.304v6.196zM26.093 299.08l11.99 7.22 3.314-2-9.845-16.307-5.46-2.888zM43.963 288.32l.747 13.975-3.313 2.004-9.845-16.307V281.8zM7.054 288.786l-.84-.507v1.008zM7.054 295.214l-.84-.503v1.01z"></path><path d="M6.213 295.717v5.42l7.467 4.465 12.413-6.522v-3.866H7.053zM6.213 294.71l.84.504h19.04V291.3l-12.414-6.52-7.467 4.495z"></path><path d="M13.68 305.602l-7.467-4.465v12.238l2.008 3.314 5.46 2.887z"></path><path d="M8.22 322.885v-6.196l-2.007-3.315v8.455zM7.054 288.786l3.313-2.004-4.154-6.89v8.387z"></path><path d="M12.934 270.852l-6.72-3.57v12.61l4.153 6.89 3.312-2.003zM106.024 302.527l-12.41 6.523v3.866h19.036l5.367-3.214z"></path><path d="M106.024 323.352l-12.41-6.523v-3.914h19.036l5.367 3.214z"></path><path d="M112.65 319.346l6.3 3.793v-7.01h-.933z" fill="#DE619C"></path><path d="M118.017 316.13h.934v-7.007l-6.3 3.793zM118.95 337.22v-14.08l-6.3-3.794-3.313 2.002z"></path><path d="M106.77 337.28l-.746-13.928 3.313-2.004 9.847 16.257v6.243zM118.017 309.702l.934-.565v-5.367l-7.467-12.33-5.46-2.887v13.974z"></path><path d="M118.95 303.77v-14.602l-7.466-3.923v6.194zM74.995 285.014l-12.413 6.52v3.866h19.04l5.365-3.168zM74.995 305.835l-12.413-6.522V295.4h19.04l5.365 3.214z"></path><path d="M93.613 309.05l12.41-6.523v-3.912H86.988l-5.366 3.213zM93.613 288.227l12.41 6.52v3.868H86.988L81.62 295.4z"></path><path d="M93.614 309.05l-11.993-7.22-3.312 2.002 9.846 16.305 5.46 2.886zM75.742 319.81l-.747-13.975 3.313-2.003 9.846 16.305v6.195zM74.994 285.012l11.993 7.22 3.313-2.002-9.8-16.304-5.506-2.888z"></path><path d="M92.866 274.252l.747 13.975-3.313 2.003-9.8-16.304v-6.196zM43.963 267.496l-12.41 6.522v3.914h19.036l5.366-3.213zM43.963 288.32l-12.41-6.52v-3.868h19.036l5.366 3.213z"></path><path d="M62.582 291.534l12.413-6.522v-3.866h-19.04l-5.364 3.167zM62.582 270.71l12.413 6.522v3.914h-19.04l-5.364-3.214zM62.582 291.534l-11.993-7.22-3.314 2.002 9.847 16.305 5.46 2.89z" fill="#CFC18F"></path><path d="M44.71 302.295l-.747-13.975 3.313-2.004 9.847 16.305v6.196zM43.963 267.497l11.993 7.22 3.313-2.003-9.8-16.305-5.507-2.89z"></path><path d="M61.834 256.736l.748 13.975-3.313 2.004-9.8-16.305v-6.196zM24.926 257.202l-11.992-7.222-6.72 3.57v6.866h13.392z" fill="#2D9781"></path><path d="M24.926 263.63l-5.32-3.215H6.213v6.867l6.72 3.568zM31.552 274.018l12.41-6.52v-3.868H24.927l-5.32 3.214z"></path><path d="M31.552 253.195l12.41 6.522v3.913H24.927l-5.32-3.214zM31.553 274.018l-11.948-7.172-3.358 2.002 9.846 16.257 5.46 2.89z"></path><path d="M13.68 284.78l-.746-13.93 3.313-2.002 9.846 16.257v6.196zM28.24 255.198l-9.688-16.07h-5.618v10.852l11.992 7.222zM30.806 239.268l-.265-.14H18.553l9.687 16.07 3.312-2.003zM6.213 253.55l6.72-3.57v-3.865h-6.72zM12.934 242.248l-5.875-3.12h-.847v6.987h6.72zM111.484 281.332h7.467v-7.79l-7.466 3.925zM111.484 285.245l7.467 3.923v-7.836h-7.466zM92.867 253.43L80.5 259.95v3.914h19.04l5.317-3.214zM92.867 274.252L80.5 267.73v-3.866h19.04l5.317 3.167zM118.95 273.542v-6.51h-14.093l-5.318 3.213 11.944 7.222z"></path><path d="M118.95 260.566l-7.466-3.923-11.945 7.22 5.317 3.17h14.094zM111.484 277.467l-11.945-7.222-3.36 2.003 9.845 16.305 5.46 2.886z"></path><path d="M93.614 288.227l-.747-13.976 3.313-2.002 9.845 16.305v6.195zM92.866 253.43l11.99 7.218 3.314-2.002-9.798-16.304-5.506-2.89zM98.372 242.342l9.798 16.304 3.313-2.003-.744-13.975-6.717-3.54h-5.65zM49.47 242.434v3.914H68.51l5.32-3.213-6.656-4.008h-11.43zM61.834 256.736l-12.363-6.522v-3.866h19.04l5.318 3.215z"></path><path d="M80.5 259.95l12.367-6.52v-3.867h-19.04l-5.318 3.166z"></path><path d="M80.5 239.127l12.367 6.52v3.916h-19.04l-5.318-3.213zM80.5 259.95l-11.99-7.22-3.362 2.002 9.847 16.305 5.505 2.89zM62.583 270.71l-.748-13.974 3.313-2.004 9.847 16.305v6.195zM73.828 243.135l3.313-2.005-1.206-2.003h-8.762z" fill="#FCFCA1"></path><path d="M77.14 241.13l3.36-2.003h-4.567zM30.806 239.268l.233-.14h-.5zM49.47 242.434l6.272-3.307H43.94z"></path><path d="M49.47 242.434l-5.53-3.307h-8.693l8.716 14.394 5.508 2.89zM30.806 239.268l.746 13.927 12.41 6.522v-6.196l-8.715-14.393h-4.21zM12.934 242.248v-3.12H7.058zM110.74 242.668l5.88-3.54h-12.596zM118.95 239.59v-.463h-.766z"></path><path d="M118.952 239.59l-.768-.463h-1.555l-2.58 1.537 4.902 8.113z" fill="#00A0AC"></path><path d="M118.952 248.78l-4.9-8.116-3.313 2.004.743 13.975 7.47 3.923zM92.867 239.453l5.505 2.89v-3.216h-5.704zM92.866 245.648v-6.195l-.198-.326H80.5z"></path></g><g fill="#9a6733" stroke="#000"><path d="M124.922 245.68l9.706-5.062-2.868-1.49h-6.838zM134.628 255.898l-9.706-5.06v10.105z"></path><path d="M124.922 260.928v5.144l19.88 10.37 9.47-6.57v-13.976H134.63z"></path><path d="M150.243 239.127h-12.7l-12.62 6.56v5.15l9.705 5.06h19.645v-13.975zM154.273 241.922l5.36-2.795h-9.39zM189.27 249.516l9.427-6.57v-3.82h-29.413zM134.628 240.618l2.883-1.49h-5.76zM126.648 327.636l-1.726-.902v1.8zM126.648 342.87l-1.726-.904v1.8zM146.293 351.673v-8.804H126.65l-1.726.896v7.907z"></path><path d="M124.922 341.966l1.726.903h19.645v-13.975l-9.423-6.57-11.948 6.21zM146.294 287.807l-9.425 6.568v13.977h19.597l14.652-7.64z"></path><path d="M146.294 328.895l-9.425-6.57v-13.973h19.597l14.652 7.59z"></path><path d="M181.29 336.486l9.474-6.566v-13.977H171.12l-14.653 7.64zM181.29 295.4l9.474 6.57v13.973H171.12l-14.653-7.59zM136.87 322.326v-27.95l-11.948 8.306v24.052l1.726.902zM132.39 269.967l-7.468-3.896v18.226zM144.8 276.44l-12.41-6.473-7.468 14.33v18.385l21.37-14.875zM190.765 260.883l-9.474 6.567v13.976h19.646l14.65-7.594zM190.765 301.97l-9.474-6.57v-13.974h19.646l14.65 7.64z"></path><path d="M225.76 309.607l9.426-6.567v-13.976h-19.6l-14.65 7.64zM225.76 268.52l9.426 6.57v13.974h-19.6l-14.65-7.638zM181.29 295.4l-10.17 5.312-12.413-6.43 9.1-17.375 13.484-9.457z"></path><path d="M144.802 276.44l1.492 11.367 12.413 6.476 9.1-17.376v-16.49z"></path><path d="M154.273 241.922v27.95l13.533-9.456 9.05-17.376-7.554-3.913h-9.674zM190.764 260.88l-1.494-11.364-12.413-6.476-9.05 17.375v16.492zM237.66 254.547v-15.42h-9.827l-2.073 1.445v13.975zM237.66 273.8v-19.253h-11.9v13.974l9.426 6.57zM225.76 268.52l-10.173 5.312-12.41-6.475 9.052-17.375 13.53-9.41z"></path><path d="M189.27 249.516l1.494 11.367 12.412 6.472 9.053-17.375v-10.853h-8.033zM198.696 242.947l5.493-3.82h-5.494zM212.23 249.98l15.594-10.853H212.23zM190.042 351.673l-7.258-3.773-5.414 3.773zM159.828 351.673v-4.237l-6.09 4.237z"></path><path d="M146.294 351.673h7.437l6.097-4.237 9.052-17.375-12.412-6.477-10.174 5.312z"></path><path d="M159.827 351.673h17.537l5.42-3.773-1.493-11.414-12.412-6.425-9.05 17.376zM217.78 341.52h19.646l.233-.124v-14.994l-10.407-5.425-9.472 6.566zM237.66 341.64l-.234-.12H217.78v10.153h19.88z"></path><path d="M237.66 341.64v-.244l-.234.124zM196.612 351.673h21.17v-24.13L204.294 337z"></path><path d="M182.784 347.9l7.233 3.773h6.595L204.295 337v-16.492l-23.004 15.978z" fill="#DE619C"></path><path d="M190.765 301.97l10.17-5.265 12.414 6.428-9.054 17.375-13.53 9.41zM227.253 320.975l-1.492-11.368-12.41-6.474-9.054 17.375V337z"></path><path d="M227.252 320.975l10.407 5.427v-25.074l-11.9 8.28zM235.186 303.04l2.473-1.72v-27.515l-2.474 1.285z"></path></g><g fill="#bbf" stroke="#000"><path d="M252.218 241.922l19.832 19.752h13.997V247.7l-20.744-8.573h-11.91z"></path><path d="M243.632 241.922h8.587l1.174-2.795h-9.762zM286.05 247.7l8.584-8.573h-29.33z"></path><path d="M300.047 261.674l9.35-22.547h-14.762l-8.588 8.573v13.974z"></path><path d="M319.832 261.674v-22.547h-10.436l-9.35 22.547 9.893 9.875zM286 295.4l-19.783-19.752 2.893-6.987L300 281.427V295.4z"></path><path d="M266.218 275.648l2.89-6.987-25.476-10.525v17.513zM300.047 261.674H272.05l-2.94 6.987L300 281.427l9.94-9.875zM272.05 261.674l-19.83-19.752h-8.588v16.213l25.477 10.526z"></path><path d="M300 281.426l19.832-19.752 7 2.89L314 295.4h-14z"></path><path d="M319.832 261.674l6.998 2.89 10.545-25.437h-17.543zM333.832 295.447v-27.95l-7-2.934L314 295.4l9.94 9.924z"></path><path d="M353.615 247.7v-8.573h-16.24l-10.543 25.436 7 2.934zM243.632 298.195l8.587-8.57v-13.977h-8.588z" fill="#CFC18F"></path><path d="M356.37 248.842l-2.755-1.143-9.893 9.874 9.893 9.922h2.754z"></path><path d="M353.615 247.7l2.754 1.142v-9.715h-2.755zM300 329.174l-19.784-19.798 2.892-6.987L314 315.2v13.974zM243.632 300.805l8.587 8.57h27.995l2.893-6.986-30.89-12.766-8.586 8.57z"></path><path d="M314 295.4h-28l-2.892 6.99L314 315.2l9.94-9.876z"></path><path d="M266.217 275.648L286 295.4l-2.892 6.99-30.89-12.767v-13.975zM314 315.198l19.832-19.75 6.998 2.887-12.83 30.84h-14zM333.832 267.497v27.95l6.998 2.888 12.785-30.838-9.893-9.923z"></path><path d="M347.83 329.174v-27.95l-7-2.89-12.83 30.84 9.89 9.875z"></path><path d="M356.37 292.7v-25.203h-2.755l-12.785 30.838 7 2.89zM252.22 309.376l-8.588-8.57v29.278zM246.433 351.673v-8.525l-2.8-1.17v9.695z"></path><path d="M243.632 330.084v11.89l2.8 1.174 19.786-19.796v-13.976h-14zM328 348.924l-30.893-12.763-2.895 6.988 8.54 8.525H328z"></path><path d="M266.216 343.148h27.996l2.895-6.987-30.89-12.808-9.892 9.875zM328 329.174h-28l-2.893 6.987L328 348.926l9.89-9.876z"></path><path d="M280.215 309.375l19.785 19.8-2.893 6.986-30.89-12.808v-13.977zM354.83 332.063l-7-2.89-19.83 19.75v2.75h18.667zM356.37 328.35V292.7l-8.54 8.525v27.948l7 2.89z"></path><path d="M356.37 351.673v-18.978l-1.54-.632-8.163 19.61z"></path><path d="M356.37 332.695v-4.345l-1.54 3.713zM266.217 343.148l-9.89-9.92-9.894 9.92v8.525h16.25z"></path><path d="M262.683 351.673h17.533v-8.525h-14zM280.216 351.673h22.535l-8.537-8.525h-13.997z"></path></g><g fill="#faf" stroke="#000"><path d="M475.078 310.55l-2.52-3.643-7.98 11.505v33.26h10.5z"></path><path d="M464.58 318.412l-7.982-11.505-15.91 23.012 8.234 21.753h15.657zM475.078 310.55v-7.297l-2.52 3.654zM475.078 281.123v-38.51l-9.427 13.565zM417.636 342.962l-15.912-22.966-7.978 11.507v20.17h20.598zM393.746 331.503l-7.933-11.506-15.958 22.965 3.29 8.71h20.6z"></path><path d="M414.345 351.673h17.29v-8.71h-14z"></path><path d="M431.634 351.673h17.29l-3.29-8.71h-14zM409.658 308.49l31.03 21.43 4.946 13.042h-27.998l-15.91-22.965zM418.708 295.4v-37.64l7.98-11.46 15.913 22.966-9.892 26.134z"></path><path d="M418.71 295.4v-37.64l-7.933-11.46-15.912 22.966 9.845 26.134zM456.6 269.266v37.64l-7.933 11.506-15.96-23.012 9.894-26.134zM456.6 306.907l7.98 11.505 10.498-15.183V281.1l-4.48-11.836H456.6z"></path><path d="M426.688 246.3l15.913 22.966h27.997l-4.946-13.088-24.705-17.05h-9.28zM440.69 329.92l-31.032-21.43-4.948-13.09h27.998l15.96 23.012zM473.63 244.717l1.448-2.086v-3.503h-5.312z"></path><path d="M465.65 256.178l7.98-11.46-3.864-5.59h-28.82zM373.146 351.673l-3.29-8.71-7.514-5.186v13.896zM371.815 282.357l-9.473-13.658v38.676z"></path><path d="M385.813 282.357v37.64l-7.98 11.506-15.914-23.012 9.893-26.133zM385.813 282.357v37.64l7.933 11.506 15.912-23.012-9.848-26.133zM362.342 268.7l9.473 13.657h27.998l-4.948-13.09-31.032-21.382-1.49 2.142z"></path><path d="M369.855 342.962l7.978-11.46-15.49-22.4v28.675zM402.797 257.762l7.98-11.46v-7.175h-20.89z"></path><path d="M410.777 246.3l7.933 11.462 12.948-18.635h-20.88zM362.342 243.936l1.49 3.95 31.033 21.38 7.932-11.504-12.91-18.635h-27.545z"></path><path d="M363.833 247.885l-1.49-3.95v6.103z"></path></g><path clip-rule="evenodd" fill="#fff" fill-rule="evenodd" d="M480.723 238.61v113.063H594.23V238.61H480.722"><defs></defs></path><path id="a" d="M480.723 238.61H594.23V351.67H480.722z"><clippath id="b"><use width="600" height="400" xlink:href="#a" overflow="visible"></use></clippath><g clip-path="url(#b)"><defs></defs></g></path><path id="c" d="M480.723 351.673V238.61H594.23v113.063z"><clippath id="d"><use width="600" height="400" xlink:href="#c" overflow="visible"></use></clippath></path><path clip-path="url(#d)" fill="#ffda55" fill-rule="evenodd" d="M462.514 336.705l18.917-5.052V321.55h-10.135l-17.562 10.103"><g clip-path="url(#b)"><defs></defs></g></path><path id="e" d="M480.723 351.673V238.61H594.23v113.063z"><clippath id="f"><use width="600" height="400" xlink:href="#e" overflow="visible"></use></clippath></path><path clip-path="url(#f)" fill="none" stroke="#000" stroke-linecap="square" stroke-miterlimit="3" d="M462.514 336.705l18.917-5.052V321.55h-10.135l-17.562 10.103z"><g clip-path="url(#b)"><defs></defs></g></path><path id="g" d="M480.723 351.673V238.61H594.23v113.063z"><clippath id="h"><use width="600" height="400" xlink:href="#g" overflow="visible"></use></clippath></path><path clip-path="url(#h)" fill="#110B49" fill-rule="evenodd" d="M462.514 336.705l18.917-5.052 5.06 8.736-8.78 5.05h-20.257"><g clip-path="url(#b)"><defs></defs></g></path><path id="i" d="M480.723 351.673V238.61H594.23v113.063z"><clippath id="j"><use width="600" height="400" xlink:href="#i" overflow="visible"></use></clippath></path><path clip-path="url(#j)" fill="none" stroke="#000" stroke-linecap="square" stroke-miterlimit="3" d="M462.514 336.705l18.917-5.052 5.06 8.736-8.78 5.05h-20.257z"><g clip-path="url(#b)"><defs></defs></g></path><path id="k" d="M480.723 351.673V238.61H594.23v113.063z"><clippath id="l"><use width="600" height="400" xlink:href="#k" overflow="visible"></use></clippath></path><path clip-path="url(#l)" fill="#ffda55" fill-rule="evenodd" d="M482.787 364.278l-5.076-18.84 8.78-5.05 5.077 8.75v20.192"><g clip-path="url(#b)"><defs></defs></g></path><path id="m" d="M480.723 351.673V238.61H594.23v113.063z"><clippath id="n"><use width="600" height="400" xlink:href="#m" overflow="visible"></use></clippath></path><path clip-path="url(#n)" fill="none" stroke="#000" stroke-linecap="square" stroke-miterlimit="3" d="M482.787 364.278l-5.076-18.84 8.78-5.05 5.077 8.75v20.192z"><g clip-path="url(#b)"><defs></defs></g></path><path id="o" d="M480.723 351.673V238.61H594.23v113.063z"><clippath id="p"><use width="600" height="400" xlink:href="#o" overflow="visible"></use></clippath></path><path clip-path="url(#p)" fill="#ffda55" fill-rule="evenodd" d="M482.787 364.278l-5.076-18.84h-10.12v10.106l10.12 17.484"><g clip-path="url(#b)"><defs></defs></g></path><path id="q" d="M480.723 351.673V238.61H594.23v113.063z"><clippath id="r"><use width="600" height="400" xlink:href="#q" overflow="visible"></use></clippath></path><path clip-path="url(#r)" fill="none" stroke="#000" stroke-linecap="square" stroke-miterlimit="3" d="M482.787 364.278l-5.076-18.84h-10.12v10.106l10.12 17.484z"><g clip-path="url(#b)"><defs></defs></g></path><path id="s" d="M480.723 351.673V238.61H594.23v113.063z"><clippath id="t"><use width="600" height="400" xlink:href="#s" overflow="visible"></use></clippath></path><path clip-path="url(#t)" fill="#ffda55" fill-rule="evenodd" d="M476.355 312.814l18.917-5.05v-10.09h-10.136l-17.546 10.09"><g clip-path="url(#b)"><defs></defs></g></path><path id="u" d="M480.723 351.673V238.61H594.23v113.063z"><clippath id="v"><use width="600" height="400" xlink:href="#u" overflow="visible"></use></clippath></path><path clip-path="url(#v)" fill="#F7F3DB" stroke="#000" stroke-linecap="square" stroke-miterlimit="3" d="M476.355 312.814l18.917-5.05v-10.09h-10.136l-17.546 10.09z"><g clip-path="url(#b)"><defs></defs></g></path><path id="w" d="M480.723 351.673V238.61H594.23v113.063z"><clippath id="x"><use width="600" height="400" xlink:href="#w" overflow="visible"></use></clippath></path><path clip-path="url(#x)" fill="#ffda55" fill-rule="evenodd" d="M476.355 312.814l18.917-5.05 5.062 8.75-8.767 5.035h-20.272"><g clip-path="url(#b)"><defs></defs></g></path><path id="y" d="M480.723 351.673V238.61H594.23v113.063z"><clippath id="z"><use width="600" height="400" xlink:href="#y" overflow="visible"></use></clippath></path><path clip-path="url(#z)" fill="none" stroke="#000" stroke-linecap="square" stroke-miterlimit="3" d="M476.355 312.814l18.917-5.05 5.062 8.75-8.767 5.035h-20.272z"></path><path clip-path="url(#b)" fill="#ffda55" fill-rule="evenodd" d="M496.627 340.39l-5.06-18.84 8.767-5.037 5.076 8.734v20.192"></path><path clip-path="url(#b)" fill="none" stroke="#000" stroke-linecap="square" stroke-miterlimit="3" d="M496.627 340.39l-5.06-18.84 8.767-5.037 5.076 8.734v20.192z"></path><path clip-path="url(#b)" fill="#ffda55" fill-rule="evenodd" d="M496.627 340.39l-5.06-18.84H481.43v10.103l10.137 17.485"><g clip-path="url(#b)"><defs></defs></g></path><path id="A" d="M480.723 351.673V238.61H594.23v113.063z"><clippath id="B"><use width="600" height="400" xlink:href="#A" overflow="visible"></use></clippath></path><path clip-path="url(#B)" fill="none" stroke="#000" stroke-linecap="square" stroke-miterlimit="3" d="M496.627 340.39l-5.06-18.84H481.43v10.103l10.137 17.485z"><g clip-path="url(#b)"><defs></defs></g></path><path id="C" d="M480.723 351.673V238.61H594.23v113.063z"><clippath id="D"><use width="600" height="400" xlink:href="#C" overflow="visible"></use></clippath></path><path clip-path="url(#D)" fill="#ffda55" fill-rule="evenodd" d="M500.334 364.278l5.076-18.84-8.783-5.05-5.06 8.75v20.192"><g clip-path="url(#b)"><defs></defs></g></path><path id="E" d="M480.723 351.673V238.61H594.23v113.063z"><clippath id="F"><use width="600" height="400" xlink:href="#E" overflow="visible"></use></clippath></path><path clip-path="url(#F)" fill="#CFC18F" stroke="#000" stroke-linecap="square" stroke-miterlimit="3" d="M500.334 364.278l5.076-18.84-8.783-5.05-5.06 8.75v20.192z"><g clip-path="url(#b)"><defs></defs></g></path><path id="G" d="M480.723 351.673V238.61H594.23v113.063z"><clippath id="H"><use width="600" height="400" xlink:href="#G" overflow="visible"></use></clippath></path><path clip-path="url(#H)" fill="#ffda55" fill-rule="evenodd" d="M505.41 345.44l-5.076 18.838 8.78 5.052 5.076-8.75v-20.19"><g clip-path="url(#b)"><defs></defs></g></path><path id="I" d="M480.723 351.673V238.61H594.23v113.063z"><clippath id="J"><use width="600" height="400" xlink:href="#I" overflow="visible"></use></clippath></path><path clip-path="url(#J)" fill="#FFB39E" stroke="#000" stroke-linecap="square" stroke-miterlimit="3" d="M505.41 345.44l-5.076 18.838 8.78 5.052 5.076-8.75v-20.19z"></path><path clip-path="url(#b)" fill="#ffda55" fill-rule="evenodd" d="M490.195 288.924l18.92-5.036v-10.105h-10.136l-17.55 10.105"><g clip-path="url(#b)"><defs></defs></g></path><path id="K" d="M480.723 351.673V238.61H594.23v113.063z"><clippath id="L"><use width="600" height="400" xlink:href="#K" overflow="visible"></use></clippath></path><path clip-path="url(#L)" fill="none" stroke="#000" stroke-linecap="square" stroke-miterlimit="3" d="M490.195 288.924l18.92-5.036v-10.105h-10.136l-17.55 10.105z"></path><path clip-path="url(#b)" fill="#ffda55" fill-rule="evenodd" d="M490.195 288.924l18.92-5.036 5.075 8.734-8.78 5.052h-20.274"></path><path clip-path="url(#b)" fill="none" stroke="#000" stroke-linecap="square" stroke-miterlimit="3" d="M490.195 288.924l18.92-5.036 5.075 8.734-8.78 5.052h-20.274z"><g clip-path="url(#b)"><defs></defs></g></path><path id="M" d="M480.723 351.673V238.61H594.23v113.063z"><clippath id="N"><use width="600" height="400" xlink:href="#M" overflow="visible"></use></clippath></path><path clip-path="url(#N)" fill="#ffda55" fill-rule="evenodd" d="M467.59 297.674l13.84-13.786 8.765 5.036-5.06 8.75-17.545 10.09"><g clip-path="url(#b)"><defs></defs></g></path><path id="O" d="M480.723 351.673V238.61H594.23v113.063z"><clippath id="P"><use width="600" height="400" xlink:href="#O" overflow="visible"></use></clippath></path><path clip-path="url(#P)" fill="none" stroke="#000" stroke-linecap="square" stroke-miterlimit="3" d="M467.59 297.674l13.84-13.786 8.765 5.036-5.06 8.75-17.545 10.09z"></path><path clip-path="url(#b)" fill="#ffda55" fill-rule="evenodd" d="M510.47 316.513l-5.06-18.84 8.78-5.05 5.06 8.75v20.176"></path><path clip-path="url(#b)" fill="none" stroke="#000" stroke-linecap="square" stroke-miterlimit="3" d="M510.47 316.513l-5.06-18.84 8.78-5.05 5.06 8.75v20.176z"></path><path clip-path="url(#b)" fill="#ffda55" fill-rule="evenodd" d="M510.47 316.513l-5.06-18.84h-10.138v10.09l10.138 17.484"></path><path clip-path="url(#b)" fill="none" stroke="#000" stroke-linecap="square" stroke-miterlimit="3" d="M510.47 316.513l-5.06-18.84h-10.138v10.09l10.138 17.484z"></path><path clip-path="url(#b)" fill="#ffda55" fill-rule="evenodd" d="M514.19 340.39l5.06-18.84-8.78-5.037-5.06 8.734v20.192"></path><path clip-path="url(#b)" fill="none" stroke="#000" stroke-linecap="square" stroke-miterlimit="3" d="M514.19 340.39l5.06-18.84-8.78-5.037-5.06 8.734v20.192z"><g clip-path="url(#b)"><defs></defs></g></path><path id="Q" d="M480.723 351.673V238.61H594.23v113.063z"><clippath id="R"><use width="600" height="400" xlink:href="#Q" overflow="visible"></use></clippath></path><path clip-path="url(#R)" fill="#ffda55" fill-rule="evenodd" d="M588.474 345.44l18.903-5.05V330.3h-10.14l-17.546 10.09"><g clip-path="url(#b)"><defs></defs></g></path><path id="S" d="M480.723 351.673V238.61H594.23v113.063z" fill="#FDFDB3"><clippath id="T"><use width="600" height="400" xlink:href="#S" overflow="visible"></use></clippath></path><path clip-path="url(#T)" fill="none" stroke="#000" stroke-linecap="square" stroke-miterlimit="3" d="M588.474 345.44l18.903-5.05V330.3h-10.14l-17.546 10.09z"><g clip-path="url(#b)"><defs></defs></g></path><path id="U" d="M480.723 351.673V238.61H594.23v113.063z"><clippath id="V"><use width="600" height="400" xlink:href="#U" overflow="visible"></use></clippath></path><path clip-path="url(#V)" fill="#ffda55" fill-rule="evenodd" d="M588.474 345.44l18.903-5.05 5.075 8.748-8.78 5.052h-20.275"><g clip-path="url(#b)"><defs></defs></g></path><path id="W" d="M480.723 351.673V238.61H594.23v113.063z"><clippath id="X"><use width="600" height="400" xlink:href="#W" overflow="visible"></use></clippath></path><path clip-path="url(#X)" fill="none" stroke="#000" stroke-linecap="square" stroke-miterlimit="3" d="M588.474 345.44l18.903-5.05 5.075 8.748-8.78 5.052h-20.275z"><g clip-path="url(#b)"><defs></defs></g></path><path id="Y" d="M480.723 351.673V238.61H594.23v113.063z"><clippath id="Z"><use width="600" height="400" xlink:href="#Y" overflow="visible"></use></clippath></path><path clip-path="url(#Z)" fill="#ffda55" fill-rule="evenodd" d="M565.852 354.19l13.84-13.8 8.782 5.05-5.077 8.75-17.545 10.088"><g clip-path="url(#b)"><defs></defs></g></path><path id="aa" d="M480.723 351.673V238.61H594.23v113.063z"><clippath id="ab"><use width="600" height="400" xlink:href="#aa" overflow="visible"></use></clippath></path><path clip-path="url(#ab)" fill="none" stroke="#000" stroke-linecap="square" stroke-miterlimit="3" d="M565.852 354.19l13.84-13.8 8.782 5.05-5.077 8.75-17.545 10.088z"><g clip-path="url(#b)"><defs></defs></g></path><path id="ac" d="M480.723 351.673V238.61H594.23v113.063z"><clippath id="ad"><use width="600" height="400" xlink:href="#ac" overflow="visible"></use></clippath></path><path clip-path="url(#ad)" fill="#ffda55" fill-rule="evenodd" d="M522.956 345.44l5.076 18.838-8.78 5.052-5.062-8.75v-20.19"><g clip-path="url(#b)"><defs></defs></g></path><path id="ae" d="M480.723 351.673V238.61H594.23v113.063z"><clippath id="af"><use width="600" height="400" xlink:href="#ae" overflow="visible"></use></clippath></path><path clip-path="url(#af)" fill="none" stroke="#000" stroke-linecap="square" stroke-miterlimit="3" d="M522.956 345.44l5.076 18.838-8.78 5.052-5.062-8.75v-20.19z"><g clip-path="url(#b)"><defs></defs></g></path><path id="ag" d="M480.723 351.673V238.61H594.23v113.063z" fill="#E1EB70"><clippath id="ah"><use width="600" height="400" xlink:href="#ag" overflow="visible"></use></clippath></path><path clip-path="url(#ah)" fill="#ffda55" fill-rule="evenodd" d="M522.956 345.44l5.076 18.838h10.138V354.19l-10.138-17.485"><g clip-path="url(#b)"><defs></defs></g></path><path id="ai" d="M480.723 351.673V238.61H594.23v113.063z"><clippath id="aj"><use width="600" height="400" xlink:href="#ai" overflow="visible"></use></clippath></path><path clip-path="url(#aj)" fill="none" stroke="#000" stroke-linecap="square" stroke-miterlimit="3" d="M522.956 345.44l5.076 18.838h10.138V354.19l-10.138-17.485z"></path><path clip-path="url(#b)" fill="#ffda55" fill-rule="evenodd" d="M519.25 321.55l-5.06 18.84 8.766 5.05 5.076-8.735v-20.192"></path><path clip-path="url(#b)" fill="none" stroke="#000" stroke-linecap="square" stroke-miterlimit="3" d="M519.25 321.55l-5.06 18.84 8.766 5.05 5.076-8.735v-20.192z"></path><path clip-path="url(#b)" fill="#ffda55" fill-rule="evenodd" d="M504.054 265.05l18.902-5.052v-10.104H512.82l-17.548 10.104"></path><path clip-path="url(#b)" fill="none" stroke="#000" stroke-linecap="square" stroke-miterlimit="3" d="M504.054 265.05l18.902-5.052v-10.104H512.82l-17.548 10.104z"></path><path clip-path="url(#b)" fill="#ffda55" fill-rule="evenodd" d="M504.054 265.05l18.902-5.052 5.076 8.733-8.78 5.053h-20.273"></path><path clip-path="url(#b)" fill="none" stroke="#000" stroke-linecap="square" stroke-miterlimit="3" d="M504.054 265.05l18.902-5.052 5.076 8.733-8.78 5.053h-20.273z"></path><path clip-path="url(#b)" fill="#ffda55" fill-rule="evenodd" d="M481.43 273.783l13.842-13.785 8.782 5.05-5.075 8.735-17.55 10.105"><g clip-path="url(#b)"><defs></defs></g></path><path id="ak" d="M480.723 351.673V238.61H594.23v113.063z"><clippath id="al"><use width="600" height="400" xlink:href="#ak" overflow="visible"></use></clippath></path><path clip-path="url(#al)" fill="none" stroke="#000" stroke-linecap="square" stroke-miterlimit="3" d="M481.43 273.783l13.842-13.785 8.782 5.05-5.075 8.735-17.55 10.105z"></path><path clip-path="url(#b)" fill="#ffda55" fill-rule="evenodd" d="M524.312 292.622l-5.06-18.84 8.78-5.05 5.06 8.75v20.192"></path><path clip-path="url(#b)" fill="none" stroke="#000" stroke-linecap="square" stroke-miterlimit="3" d="M524.312 292.622l-5.06-18.84 8.78-5.05 5.06 8.75v20.192z"></path><path clip-path="url(#b)" fill="#ffda55" fill-rule="evenodd" d="M524.312 292.622l-5.06-18.84h-10.138v10.106l10.137 17.484"></path><path clip-path="url(#b)" fill="none" stroke="#000" stroke-linecap="square" stroke-miterlimit="3" d="M524.312 292.622l-5.06-18.84h-10.138v10.106l10.137 17.484z"></path><path clip-path="url(#b)" fill="#ffda55" fill-rule="evenodd" d="M528.032 316.513l5.06-18.84-8.78-5.05-5.06 8.75v20.176"></path><path clip-path="url(#b)" fill="none" stroke="#000" stroke-linecap="square" stroke-miterlimit="3" d="M528.032 316.513l5.06-18.84-8.78-5.05-5.06 8.75v20.176z"><g clip-path="url(#b)"><defs></defs></g></path><path id="am" d="M480.723 351.673V238.61H594.23v113.063z"><clippath id="an"><use width="600" height="400" xlink:href="#am" overflow="visible"></use></clippath></path><path clip-path="url(#an)" fill="#ffda55" fill-rule="evenodd" d="M481.43 283.888l-13.84 13.786-8.78-5.052 5.06-8.734 17.56-10.105"><g clip-path="url(#b)"><defs></defs></g></path><path id="ao" d="M480.723 351.673V238.61H594.23v113.063z"><clippath id="ap"><use width="600" height="400" xlink:href="#ao" overflow="visible"></use></clippath></path><path clip-path="url(#ap)" fill="#231E2E" stroke="#000" stroke-linecap="square" stroke-miterlimit="3" d="M481.43 283.888l-13.84 13.786-8.78-5.052 5.06-8.734 17.56-10.105z"><g clip-path="url(#b)"><defs></defs></g></path><path id="aq" d="M480.723 351.673V238.61H594.23v113.063z"><clippath id="ar"><use width="600" height="400" xlink:href="#aq" overflow="visible"></use></clippath></path><path clip-path="url(#ar)" fill="#B4B567" fill-rule="evenodd" d="M602.315 321.55l18.902-5.037v-10.105h-10.12l-17.563 10.105"><g clip-path="url(#b)"><defs></defs></g></path><path id="as" d="M480.723 351.673V238.61H594.23v113.063z"><clippath id="at"><use width="600" height="400" xlink:href="#as" overflow="visible"></use></clippath></path><path clip-path="url(#at)" fill="none" stroke="#000" stroke-linecap="square" stroke-miterlimit="3" d="M602.315 321.55l18.902-5.037v-10.105h-10.12l-17.563 10.105z"><g clip-path="url(#b)"><defs></defs></g></path><path id="au" d="M480.723 351.673V238.61H594.23v113.063z"><clippath id="av"><use width="600" height="400" xlink:href="#au" overflow="visible"></use></clippath></path><path clip-path="url(#av)" fill="#ffda55" fill-rule="evenodd" d="M579.69 330.3l13.844-13.787 8.78 5.036-5.076 8.75-17.547 10.09"><g clip-path="url(#b)"><defs></defs></g></path><path id="aw" d="M480.723 351.673V238.61H594.23v113.063z"><clippath id="ax"><use width="600" height="400" xlink:href="#aw" overflow="visible"></use></clippath></path><path clip-path="url(#ax)" fill="none" stroke="#000" stroke-linecap="square" stroke-miterlimit="3" d="M579.69 330.3l13.844-13.787 8.78 5.036-5.076 8.75-17.547 10.09z"><g clip-path="url(#b)"><defs></defs></g></path><path id="ay" d="M480.723 351.673V238.61H594.23v113.063z"><clippath id="az"><use width="600" height="400" xlink:href="#ay" overflow="visible"></use></clippath></path><path clip-path="url(#az)" fill="#ffda55" fill-rule="evenodd" d="M557.07 349.138l-18.9 5.052v10.088h10.12l17.562-10.088"><g clip-path="url(#b)"><defs></defs></g></path><path id="aA" d="M480.723 351.673V238.61H594.23v113.063z"><clippath id="aB"><use width="600" height="400" xlink:href="#aA" overflow="visible"></use></clippath></path><path clip-path="url(#aB)" fill="none" stroke="#000" stroke-linecap="square" stroke-miterlimit="3" d="M557.07 349.138l-18.9 5.052v10.088h10.12l17.562-10.088z"><g clip-path="url(#b)"><defs></defs></g></path><path id="aC" d="M480.723 351.673V238.61H594.23v113.063z"><clippath id="aD"><use width="600" height="400" xlink:href="#aC" overflow="visible"></use></clippath></path><path clip-path="url(#aD)" fill="#ffda55" fill-rule="evenodd" d="M557.07 349.138l-18.9 5.052-5.077-8.75 8.78-5.05h20.273"><g clip-path="url(#b)"><defs></defs></g></path><path id="aE" d="M480.723 351.673V238.61H594.23v113.063z"><clippath id="aF"><use width="600" height="400" xlink:href="#aE" overflow="visible"></use></clippath></path><path clip-path="url(#aF)" fill="none" stroke="#000" stroke-linecap="square" stroke-miterlimit="3" d="M557.07 349.138l-18.9 5.052-5.077-8.75 8.78-5.05h20.273z"><g clip-path="url(#b)"><defs></defs></g></path><path id="aG" d="M480.723 351.673V238.61H594.23v113.063z"><clippath id="aH"><use width="600" height="400" xlink:href="#aG" overflow="visible"></use></clippath></path><path clip-path="url(#aH)" fill="#ffda55" fill-rule="evenodd" d="M579.69 340.39l-13.838 13.8-8.78-5.052 5.074-8.75 17.545-10.09"><g clip-path="url(#b)"><defs></defs></g></path><path id="aI" d="M480.723 351.673V238.61H594.23v113.063z"><clippath id="aJ"><use width="600" height="400" xlink:href="#aI" overflow="visible"></use></clippath></path><path clip-path="url(#aJ)" fill="none" stroke="#000" stroke-linecap="square" stroke-miterlimit="3" d="M579.69 340.39l-13.838 13.8-8.78-5.052 5.074-8.75 17.545-10.09z"></path><path clip-path="url(#b)" fill="#ffda55" fill-rule="evenodd" d="M536.798 321.55l5.076 18.84-8.78 5.05-5.062-8.735v-20.192"></path><path clip-path="url(#b)" fill="#E5625C" stroke="#000" stroke-linecap="square" stroke-miterlimit="3" d="M536.798 321.55l5.076 18.84-8.78 5.05-5.062-8.735v-20.192z"></path><path clip-path="url(#b)" fill="#ffda55" fill-rule="evenodd" d="M536.798 321.55l5.076 18.84h10.136V330.3l-10.136-17.486"></path><path clip-path="url(#b)" fill="none" stroke="#000" stroke-linecap="square" stroke-miterlimit="3" d="M536.798 321.55l5.076 18.84h10.136V330.3l-10.136-17.486z"></path><path clip-path="url(#b)" fill="#ffda55" fill-rule="evenodd" d="M533.093 297.674l-5.06 18.84 8.765 5.035 5.076-8.736v-20.192"></path><path clip-path="url(#b)" fill="none" stroke="#000" stroke-linecap="square" stroke-miterlimit="3" d="M533.093 297.674l-5.06 18.84 8.765 5.035 5.076-8.736v-20.192z"><g clip-path="url(#b)"><defs></defs></g></path><path id="aK" d="M480.723 351.673V238.61H594.23v113.063z"><clippath id="aL"><use width="600" height="400" xlink:href="#aK" overflow="visible"></use></clippath></path><path clip-path="url(#aL)" fill="#ffda55" fill-rule="evenodd" d="M517.896 241.16l18.902-5.054V226.02h-10.12l-17.564 10.086"><g clip-path="url(#b)"><defs></defs></g></path><path id="aM" d="M480.723 351.673V238.61H594.23v113.063z"><clippath id="aN"><use width="600" height="400" xlink:href="#aM" overflow="visible"></use></clippath></path><path clip-path="url(#aN)" fill="none" stroke="#000" stroke-linecap="square" stroke-miterlimit="3" d="M517.896 241.16l18.902-5.054V226.02h-10.12l-17.564 10.086z"><g clip-path="url(#b)"><defs></defs></g></path><path id="aO" d="M480.723 351.673V238.61H594.23v113.063z"><clippath id="aP"><use width="600" height="400" xlink:href="#aO" overflow="visible"></use></clippath></path><path clip-path="url(#aP)" fill="#ffda55" fill-rule="evenodd" d="M517.896 241.16l18.902-5.054 5.076 8.75-8.78 5.038h-20.275"><g clip-path="url(#b)"><defs></defs></g></path><path id="aQ" d="M480.723 351.673V238.61H594.23v113.063z"><clippath id="aR"><use width="600" height="400" xlink:href="#aQ" overflow="visible"></use></clippath></path><path clip-path="url(#aR)" fill="none" stroke="#000" stroke-linecap="square" stroke-miterlimit="3" d="M517.896 241.16l18.902-5.054 5.076 8.75-8.78 5.038h-20.275z"><g clip-path="url(#b)"><defs></defs></g></path><path id="aS" d="M480.723 351.673V238.61H594.23v113.063z"><clippath id="aT"><use width="600" height="400" xlink:href="#aS" overflow="visible"></use></clippath></path><path clip-path="url(#aT)" fill="#ffda55" fill-rule="evenodd" d="M495.272 249.894l13.842-13.788 8.782 5.053-5.077 8.734-17.548 10.104"><g clip-path="url(#b)"><defs></defs></g></path><path id="aU" d="M480.723 351.673V238.61H594.23v113.063z"><clippath id="aV"><use width="600" height="400" xlink:href="#aU" overflow="visible"></use></clippath></path><path clip-path="url(#aV)" fill="none" stroke="#000" stroke-linecap="square" stroke-miterlimit="3" d="M495.272 249.894l13.842-13.788 8.782 5.053-5.077 8.734-17.548 10.104z"></path><path clip-path="url(#b)" fill="#ffda55" fill-rule="evenodd" d="M538.17 268.73l-5.077-18.836 8.78-5.038 5.06 8.736v20.19"></path><path clip-path="url(#b)" fill="none" stroke="#000" stroke-linecap="square" stroke-miterlimit="3" d="M538.17 268.73l-5.077-18.836 8.78-5.038 5.06 8.736v20.19z"></path><path clip-path="url(#b)" fill="#ffda55" fill-rule="evenodd" d="M538.17 268.73l-5.077-18.836h-10.137v10.104l10.137 17.484"></path><path clip-path="url(#b)" fill="#00A0AC" stroke="#000" stroke-linecap="square" stroke-miterlimit="3" d="M538.17 268.73l-5.077-18.836h-10.137v10.104l10.137 17.484z"></path><path clip-path="url(#b)" fill="#ffda55" fill-rule="evenodd" d="M541.874 292.622l5.06-18.84-8.764-5.05-5.077 8.75v20.192"></path><path clip-path="url(#b)" fill="none" stroke="#000" stroke-linecap="square" stroke-miterlimit="3" d="M541.874 292.622l5.06-18.84-8.764-5.05-5.077 8.75v20.192z"><g clip-path="url(#b)"><defs></defs></g></path><path id="aW" d="M480.723 351.673V238.61H594.23v113.063z"><clippath id="aX"><use width="600" height="400" xlink:href="#aW" overflow="visible"></use></clippath></path><path clip-path="url(#aX)" fill="#ffda55" fill-rule="evenodd" d="M472.65 268.73l-18.917 5.053v10.105h10.137l17.56-10.105"><g clip-path="url(#b)"><defs></defs></g></path><path id="aY" d="M480.723 351.673V238.61H594.23v113.063z"><clippath id="aZ"><use width="600" height="400" xlink:href="#aY" overflow="visible"></use></clippath></path><path clip-path="url(#aZ)" fill="none" stroke="#000" stroke-linecap="square" stroke-miterlimit="3" d="M472.65 268.73l-18.917 5.053v10.105h10.137l17.56-10.105z"><g clip-path="url(#b)"><defs></defs></g></path><path id="ba" d="M480.723 351.673V238.61H594.23v113.063z"><clippath id="bb"><use width="600" height="400" xlink:href="#ba" overflow="visible"></use></clippath></path><path clip-path="url(#bb)" fill="#ffda55" fill-rule="evenodd" d="M495.272 259.998l-13.84 13.785-8.782-5.052 5.06-8.732 17.562-10.104"><g clip-path="url(#b)"><defs></defs></g></path><path id="bc" d="M480.723 351.673V238.61H594.23v113.063z"><clippath id="bd"><use width="600" height="400" xlink:href="#bc" overflow="visible"></use></clippath></path><path clip-path="url(#bd)" fill="none" stroke="#000" stroke-linecap="square" stroke-miterlimit="3" d="M495.272 259.998l-13.84 13.785-8.782-5.052 5.06-8.732 17.562-10.104z"><g clip-path="url(#b)"><defs></defs></g></path><path id="be" d="M480.723 351.673V238.61H594.23v113.063z"><clippath id="bf"><use width="600" height="400" xlink:href="#be" overflow="visible"></use></clippath></path><path clip-path="url(#bf)" fill="#ffda55" fill-rule="evenodd" d="M593.534 306.408l13.843-13.786 8.78 5.052-5.06 8.734-17.563 10.105"><g clip-path="url(#b)"><defs></defs></g></path><path id="bg" d="M480.723 351.673V238.61H594.23v113.063z"><clippath id="bh"><use width="600" height="400" xlink:href="#bg" overflow="visible"></use></clippath></path><path clip-path="url(#bh)" fill="none" stroke="#000" stroke-linecap="square" stroke-miterlimit="3" d="M593.534 306.408l13.843-13.786 8.78 5.052-5.06 8.734-17.563 10.105z"></path><path clip-path="url(#b)" fill="#ffda55" fill-rule="evenodd" d="M570.91 325.247l-18.9 5.052v10.09h10.136l17.545-10.09"></path><path clip-path="url(#b)" fill="none" stroke="#000" stroke-linecap="square" stroke-miterlimit="3" d="M570.91 325.247l-18.9 5.052v10.09h10.136l17.545-10.09z"></path><path clip-path="url(#b)" fill="#ffda55" fill-rule="evenodd" d="M570.91 325.247l-18.9 5.052-5.076-8.75 8.78-5.037h20.273"></path><path clip-path="url(#b)" fill="none" stroke="#000" stroke-linecap="square" stroke-miterlimit="3" d="M570.91 325.247l-18.9 5.052-5.076-8.75 8.78-5.037h20.273z"></path><path clip-path="url(#b)" fill="#ffda55" fill-rule="evenodd" d="M593.534 316.513L579.69 330.3l-8.78-5.053 5.077-8.734 17.547-10.105"><g clip-path="url(#b)"><defs></defs></g></path><path id="bi" d="M480.723 351.673V238.61H594.23v113.063z"><clippath id="bj"><use width="600" height="400" xlink:href="#bi" overflow="visible"></use></clippath></path><path clip-path="url(#bj)" fill="none" stroke="#000" stroke-linecap="square" stroke-miterlimit="3" d="M593.534 316.513L579.69 330.3l-8.78-5.053 5.077-8.734 17.547-10.105z"></path><path clip-path="url(#b)" fill="#FCFCA1" fill-rule="evenodd" d="M550.654 297.674l5.06 18.84-8.78 5.035-5.06-8.736v-20.192"></path><path clip-path="url(#b)" fill="none" stroke="#000" stroke-linecap="square" stroke-miterlimit="3" d="M550.654 297.674l5.06 18.84-8.78 5.035-5.06-8.736v-20.192z"></path><path clip-path="url(#b)" fill="#ffda55" fill-rule="evenodd" d="M550.654 297.674l5.06 18.84h10.138v-10.106l-10.137-17.484"></path><path clip-path="url(#b)" fill="none" stroke="#000" stroke-linecap="square" stroke-miterlimit="3" d="M550.654 297.674l5.06 18.84h10.138v-10.106l-10.137-17.484z"></path><path clip-path="url(#b)" fill="#ffda55" fill-rule="evenodd" d="M546.934 273.783l-5.06 18.84 8.78 5.05 5.06-8.75v-20.192"></path><path clip-path="url(#b)" fill="none" stroke="#000" stroke-linecap="square" stroke-miterlimit="3" d="M546.934 273.783l-5.06 18.84 8.78 5.05 5.06-8.75v-20.192z"><g clip-path="url(#b)"><defs></defs></g></path><path id="bk" d="M480.723 351.673V238.61H594.23v113.063z"><clippath id="bl"><use width="600" height="400" xlink:href="#bk" overflow="visible"></use></clippath></path><path clip-path="url(#bl)" fill="#ffda55" fill-rule="evenodd" d="M552.01 244.856l-5.076-18.837 8.78-5.053 5.06 8.75v20.177"><g clip-path="url(#b)"><defs></defs></g></path><path id="bm" d="M480.723 351.673V238.61H594.23v113.063z"><clippath id="bn"><use width="600" height="400" xlink:href="#bm" overflow="visible"></use></clippath></path><path clip-path="url(#bn)" fill="none" stroke="#000" stroke-linecap="square" stroke-miterlimit="3" d="M552.01 244.856l-5.076-18.837 8.78-5.053 5.06 8.75v20.177z"><g clip-path="url(#b)"><defs></defs></g></path><path id="bo" d="M480.723 351.673V238.61H594.23v113.063z"><clippath id="bp"><use width="600" height="400" xlink:href="#bo" overflow="visible"></use></clippath></path><path clip-path="url(#bp)" fill="#ffda55" fill-rule="evenodd" d="M552.01 244.856l-5.076-18.837h-10.136v10.086l10.136 17.486"><g clip-path="url(#b)"><defs></defs></g></path><path id="bq" d="M480.723 351.673V238.61H594.23v113.063z"><clippath id="br"><use width="600" height="400" xlink:href="#bq" overflow="visible"></use></clippath></path><path clip-path="url(#br)" fill="none" stroke="#000" stroke-linecap="square" stroke-miterlimit="3" d="M552.01 244.856l-5.076-18.837h-10.136v10.086l10.136 17.486z"></path><path clip-path="url(#b)" fill="#ffda55" fill-rule="evenodd" d="M555.715 268.73l5.06-18.836-8.765-5.038-5.076 8.736v20.19"></path><path clip-path="url(#b)" fill="none" stroke="#000" stroke-linecap="square" stroke-miterlimit="3" d="M555.715 268.73l5.06-18.836-8.765-5.038-5.076 8.736v20.19z"><g clip-path="url(#b)"><defs></defs></g></path><path id="bs" d="M480.723 351.673V238.61H594.23v113.063z"><clippath id="bt"><use width="600" height="400" xlink:href="#bs" overflow="visible"></use></clippath></path><path clip-path="url(#bt)" fill="#ffda55" fill-rule="evenodd" d="M486.49 244.856l-18.9 5.038v10.104h10.12l17.562-10.104"><g clip-path="url(#b)"><defs></defs></g></path><path id="bu" d="M480.723 351.673V238.61H594.23v113.063z"><clippath id="bv"><use width="600" height="400" xlink:href="#bu" overflow="visible"></use></clippath></path><path clip-path="url(#bv)" fill="none" stroke="#000" stroke-linecap="square" stroke-miterlimit="3" d="M486.49 244.856l-18.9 5.038v10.104h10.12l17.562-10.104z"><g clip-path="url(#b)"><defs></defs></g></path><path id="bw" d="M480.723 351.673V238.61H594.23v113.063z"><clippath id="bx"><use width="600" height="400" xlink:href="#bw" overflow="visible"></use></clippath></path><path clip-path="url(#bx)" fill="#ffda55" fill-rule="evenodd" d="M486.49 244.856l-18.9 5.038-5.076-8.735 8.78-5.054h20.273"><g clip-path="url(#b)"><defs></defs></g></path><path id="by" d="M480.723 351.673V238.61H594.23v113.063z"><clippath id="bz"><use width="600" height="400" xlink:href="#by" overflow="visible"></use></clippath></path><path clip-path="url(#bz)" fill="none" stroke="#000" stroke-linecap="square" stroke-miterlimit="3" d="M486.49 244.856l-18.9 5.038-5.076-8.735 8.78-5.054h20.273z"><g clip-path="url(#b)"><defs></defs></g></path><path id="bA" d="M480.723 351.673V238.61H594.23v113.063z"><clippath id="bB"><use width="600" height="400" xlink:href="#bA" overflow="visible"></use></clippath></path><path clip-path="url(#bB)" fill="#ffda55" fill-rule="evenodd" d="M509.114 236.106l-13.842 13.788-8.78-5.038 5.075-8.75 17.547-10.087"><g clip-path="url(#b)"><defs></defs></g></path><path id="bC" d="M480.723 351.673V238.61H594.23v113.063z"><clippath id="bD"><use width="600" height="400" xlink:href="#bC" overflow="visible"></use></clippath></path><path clip-path="url(#bD)" fill="none" stroke="#000" stroke-linecap="square" stroke-miterlimit="3" d="M509.114 236.106l-13.842 13.788-8.78-5.038 5.075-8.75 17.547-10.087z"></path><path clip-path="url(#b)" fill="#ffda55" fill-rule="evenodd" d="M584.754 301.372l-18.902 5.036v10.105h10.135l17.547-10.105"><g clip-path="url(#b)"><defs></defs></g></path><path id="bE" d="M480.723 351.673V238.61H594.23v113.063z"><clippath id="bF"><use width="600" height="400" xlink:href="#bE" overflow="visible"></use></clippath></path><path clip-path="url(#bF)" fill="none" stroke="#000" stroke-linecap="square" stroke-miterlimit="3" d="M584.754 301.372l-18.902 5.036v10.105h10.135l17.547-10.105z"></path><path clip-path="url(#b)" fill="#ffda55" fill-rule="evenodd" d="M584.754 301.372l-18.902 5.036-5.077-8.734 8.78-5.052h20.275"></path><path clip-path="url(#b)" fill="none" stroke="#000" stroke-linecap="square" stroke-miterlimit="3" d="M584.754 301.372l-18.902 5.036-5.077-8.734 8.78-5.052h20.275z"><g clip-path="url(#b)"><defs></defs></g></path><path id="bG" d="M480.723 351.673V238.61H594.23v113.063z"><clippath id="bH"><use width="600" height="400" xlink:href="#bG" overflow="visible"></use></clippath></path><path clip-path="url(#bH)" fill="#ffda55" fill-rule="evenodd" d="M607.377 292.622l-13.843 13.786-8.78-5.036 5.076-8.75 17.547-10.087"><g clip-path="url(#b)"><defs></defs></g></path><path id="bI" d="M480.723 351.673V238.61H594.23v113.063z"><clippath id="bJ"><use width="600" height="400" xlink:href="#bI" overflow="visible"></use></clippath></path><path clip-path="url(#bJ)" fill="none" stroke="#000" stroke-linecap="square" stroke-miterlimit="3" d="M607.377 292.622l-13.843 13.786-8.78-5.036 5.076-8.75 17.547-10.087z"></path><path clip-path="url(#b)" fill="#ffda55" fill-rule="evenodd" d="M564.495 273.783l5.06 18.84-8.78 5.05-5.06-8.75v-20.192"></path><path clip-path="url(#b)" fill="none" stroke="#000" stroke-linecap="square" stroke-miterlimit="3" d="M564.495 273.783l5.06 18.84-8.78 5.05-5.06-8.75v-20.192z"></path><path clip-path="url(#b)" fill="#ffda55" fill-rule="evenodd" d="M564.495 273.783l5.06 18.84h10.136v-10.088l-10.134-17.486"></path><path clip-path="url(#b)" fill="none" stroke="#000" stroke-linecap="square" stroke-miterlimit="3" d="M564.495 273.783l5.06 18.84h10.136v-10.088l-10.134-17.486z"></path><path clip-path="url(#b)" fill="#FFDB69" fill-rule="evenodd" d="M560.775 249.894l-5.06 18.837 8.78 5.053 5.06-8.734v-20.194"></path><path clip-path="url(#b)" fill="none" stroke="#000" stroke-linecap="square" stroke-miterlimit="3" d="M560.775 249.894l-5.06 18.837 8.78 5.053 5.06-8.734v-20.194z"><g clip-path="url(#b)"><defs></defs></g></path><path id="bK" d="M480.723 351.673V238.61H594.23v113.063z"><clippath id="bL"><use width="600" height="400" xlink:href="#bK" overflow="visible"></use></clippath></path><path clip-path="url(#bL)" fill="#ffda55" fill-rule="evenodd" d="M569.556 244.856l5.077-18.837-8.78-5.053-5.078 8.75v20.177"><g clip-path="url(#b)"><defs></defs></g></path><path id="bM" d="M480.723 351.673V238.61H594.23v113.063z"><clippath id="bN"><use width="600" height="400" xlink:href="#bM" overflow="visible"></use></clippath></path><path clip-path="url(#bN)" fill="none" stroke="#000" stroke-linecap="square" stroke-miterlimit="3" d="M569.556 244.856l5.077-18.837-8.78-5.053-5.078 8.75v20.177z"><g clip-path="url(#b)"><defs></defs></g></path><path id="bO" d="M480.723 351.673V238.61H594.23v113.063z"><clippath id="bP"><use width="600" height="400" xlink:href="#bO" overflow="visible"></use></clippath></path><path clip-path="url(#bP)" fill="#B4B567" fill-rule="evenodd" d="M598.61 277.482l-18.92 5.053v10.087h10.14l17.547-10.087"><g clip-path="url(#b)"><defs></defs></g></path><path id="bQ" d="M480.723 351.673V238.61H594.23v113.063z"><clippath id="bR"><use width="600" height="400" xlink:href="#bQ" overflow="visible"></use></clippath></path><path clip-path="url(#bR)" fill="none" stroke="#000" stroke-linecap="square" stroke-miterlimit="3" d="M598.61 277.482l-18.92 5.053v10.087h10.14l17.547-10.087z"><g clip-path="url(#b)"><defs></defs></g></path><path id="bS" d="M480.723 351.673V238.61H594.23v113.063z"><clippath id="bT"><use width="600" height="400" xlink:href="#bS" overflow="visible"></use></clippath></path><path clip-path="url(#bT)" fill="#ffda55" fill-rule="evenodd" d="M598.61 277.482l-18.92 5.053-5.057-8.752 8.764-5.052h20.275"><g clip-path="url(#b)"><defs></defs></g></path><path id="bU" d="M480.723 351.673V238.61H594.23v113.063z"><clippath id="bV"><use width="600" height="400" xlink:href="#bU" overflow="visible"></use></clippath></path><path clip-path="url(#bV)" fill="none" stroke="#000" stroke-linecap="square" stroke-miterlimit="3" d="M598.61 277.482l-18.92 5.053-5.057-8.752 8.764-5.052h20.275z"></path><path clip-path="url(#b)" fill="#ffda55" fill-rule="evenodd" d="M578.337 249.894l5.06 18.837-8.764 5.053-5.077-8.734v-20.194"></path><path clip-path="url(#b)" fill="none" stroke="#000" stroke-linecap="square" stroke-miterlimit="3" d="M578.337 249.894l5.06 18.837-8.764 5.053-5.077-8.734v-20.194z"></path><path clip-path="url(#b)" fill="#ffda55" fill-rule="evenodd" d="M578.337 249.894l5.06 18.837h10.137v-10.085l-10.137-17.486"><g clip-path="url(#b)"><defs></defs></g></path><path id="bW" d="M480.723 351.673V238.61H594.23v113.063z"><clippath id="bX"><use width="600" height="400" xlink:href="#bW" overflow="visible"></use></clippath></path><path clip-path="url(#bX)" fill="none" stroke="#000" stroke-linecap="square" stroke-miterlimit="3" d="M578.337 249.894l5.06 18.837h10.137v-10.085l-10.137-17.486z"><g clip-path="url(#b)"><defs></defs></g></path><path id="bY" d="M480.723 351.673V238.61H594.23v113.063z"><clippath id="bZ"><use width="600" height="400" xlink:href="#bY" overflow="visible"></use></clippath></path><path clip-path="url(#bZ)" fill="#ffda55" fill-rule="evenodd" d="M574.633 226.02l-5.077 18.836 8.78 5.038 5.06-8.735v-20.193"><g clip-path="url(#b)"><defs></defs></g></path><path id="ca" d="M480.723 351.673V238.61H594.23v113.063z"><clippath id="cb"><use width="600" height="400" xlink:href="#ca" overflow="visible"></use></clippath></path><path clip-path="url(#cb)" fill="none" stroke="#000" stroke-linecap="square" stroke-miterlimit="3" d="M574.633 226.02l-5.077 18.836 8.78 5.038 5.06-8.735v-20.193z"><g clip-path="url(#b)"><defs></defs></g></path><path id="cc" d="M480.723 351.673V238.61H594.23v113.063z"><clippath id="cd"><use width="600" height="400" xlink:href="#cc" overflow="visible"></use></clippath></path><path clip-path="url(#cd)" fill="#ffda55" fill-rule="evenodd" d="M612.452 253.592l-18.918 5.053v10.086h10.138l17.545-10.085"><g clip-path="url(#b)"><defs></defs></g></path><path id="ce" d="M480.723 351.673V238.61H594.23v113.063z"><clippath id="cf"><use width="600" height="400" xlink:href="#ce" overflow="visible"></use></clippath></path><path clip-path="url(#cf)" fill="#F79E7B" stroke="#000" stroke-linecap="square" stroke-miterlimit="3" d="M612.452 253.592l-18.918 5.053v10.086h10.138l17.545-10.085z"><g clip-path="url(#b)"><defs></defs></g></path><path id="cg" d="M480.723 351.673V238.61H594.23v113.063z"><clippath id="ch"><use width="600" height="400" xlink:href="#cg" overflow="visible"></use></clippath></path><path clip-path="url(#ch)" fill="#ffda55" fill-rule="evenodd" d="M612.452 253.592l-18.918 5.053-5.06-8.75 8.764-5.04h20.275"><g clip-path="url(#b)"><defs></defs></g></path><path id="ci" d="M480.723 351.673V238.61H594.23v113.063z"><clippath id="cj"><use width="600" height="400" xlink:href="#ci" overflow="visible"></use></clippath></path><path clip-path="url(#cj)" fill="none" stroke="#000" stroke-linecap="square" stroke-miterlimit="3" d="M612.452 253.592l-18.918 5.053-5.06-8.75 8.764-5.04h20.275z"><g clip-path="url(#b)"><defs></defs></g></path><path id="ck" d="M480.723 351.673V238.61H594.23v113.063z"><clippath id="cl"><use width="600" height="400" xlink:href="#ck" overflow="visible"></use></clippath></path><path clip-path="url(#cl)" fill="#ffda55" fill-rule="evenodd" d="M592.18 226.02l5.058 18.836-8.764 5.038-5.077-8.735v-20.193"><g clip-path="url(#b)"><defs></defs></g></path><path id="cm" d="M480.723 351.673V238.61H594.23v113.063z"><clippath id="cn"><use width="600" height="400" xlink:href="#cm" overflow="visible"></use></clippath></path><path clip-path="url(#cn)" fill="none" stroke="#000" stroke-linecap="square" stroke-miterlimit="3" d="M592.18 226.02l5.058 18.836-8.764 5.038-5.077-8.735v-20.193z"><g clip-path="url(#b)"><defs></defs></g></path><path id="co" d="M480.723 351.673V238.61H594.23v113.063z"><clippath id="cp"><use width="600" height="400" xlink:href="#co" overflow="visible"></use></clippath></path><path clip-path="url(#cp)" fill="#ffda55" fill-rule="evenodd" d="M592.18 226.02l5.058 18.836h10.14v-10.103l-10.14-17.484"><g clip-path="url(#b)"><defs></defs></g></path><path id="cq" d="M480.723 351.673V238.61H594.23v113.063z"><clippath id="cr"><use width="600" height="400" xlink:href="#cq" overflow="visible"></use></clippath></path><path clip-path="url(#cr)" fill="none" stroke="#000" stroke-linecap="square" stroke-miterlimit="3" d="M592.18 226.02l5.058 18.836h10.14v-10.103l-10.14-17.484z"></path><path fill="none" stroke="#231f20" stroke-miterlimit="10" d="M480.723 238.61H594.23V351.67H480.722z"></path></svg>