<svg xmlns="http://www.w3.org/2000/svg" viewBox="0 0 934.98749 483.54755" height="483.548" width="934.987"><defs><clipPath id="a"><path d="M0 0h748v387H0V0z"/></clipPath></defs><g clip-path="url(#a)" transform="matrix(1.25 0 0 -1.25 0 483.75)"><path d="M36.64 230.29v-73.4h-48.28l-21.188 36.7 21.187 36.7h48.28zM173.55 193.59l63.54-36.68-24.133-41.832h-42.375l-21.19 36.7 24.16 41.812zM73.3 93.39h42.38l21.19-36.7H94.493l-21.19 36.7zM200.438 93.39h-42.38l-21.187-36.7h42.376l21.192 36.7zM173.53 193.59l63.56 36.68-24.133 41.832h-42.375l-21.19-36.7 24.14-41.812zM73.3 293.793l42.38-.004 21.19 36.698-42.378.004-21.19-36.7zM136.87 330.488h42.376l21.192-36.7h-42.38l-21.187 36.7z" fill="#915744" stroke="#b3b3b3" stroke-width="1.417" stroke-linecap="round" stroke-linejoin="round"/><path d="M100.188 193.59l24.14-41.813-21.19-36.7h-42.38l-24.13 41.833 63.56 36.68zM36.648 230.27l24.133 41.832h42.38l21.188-36.7-24.16-41.812-63.54 36.68zM237.098 230.293h48.28l21.188-36.703-21.187-36.7h-48.282v73.403zM310.422 156.89l21.19 36.704h42.376L352.8 156.89h-42.378zM437.56 156.89h-42.38l-21.192 36.704h42.38l21.19-36.703z" fill="#915744" stroke="#b3b3b3" stroke-width="1.417" stroke-linecap="round" stroke-linejoin="round"/><path d="M373.988 193.594l-21.187 36.7 21.188 36.698 21.192-36.7-21.192-36.698zM310.422 156.89l21.19 36.704h42.376L352.8 156.89h-42.378z" fill="#915744" stroke="#b3b3b3" stroke-width="1.417" stroke-linecap="round" stroke-linejoin="round"/><path d="M437.56 156.89h-42.38l-21.192 36.704h42.38l21.19-36.703z" fill="#915744" stroke="#b3b3b3" stroke-width="1.417" stroke-linecap="round" stroke-linejoin="round"/><path d="M373.988 193.594l-21.187 36.7 21.188 36.698 21.192-36.7-21.192-36.698zM410.672 330.492l63.54-36.68-24.134-41.832h-42.38l-21.186 36.7 24.16 41.812zM410.652 56.69l63.56 36.68-24.134 41.833h-42.38L386.513 98.5l24.14-41.81z" fill="#915744" stroke="#b3b3b3" stroke-width="1.417" stroke-linecap="round" stroke-linejoin="round"/><path d="M474.21 367.172h48.278l21.192-36.703-21.192-36.7H474.21v73.402zM474.21 93.37h48.278L543.68 56.67l-21.192-36.7H474.21v73.403z" fill="#915744" stroke="#b3b3b3" stroke-width="1.417" stroke-linecap="round" stroke-linejoin="round"/><path d="M-57.87 193.59h25.042L12.5 272.102l-12.52 21.69-57.85-100.202zM-79.062 156.89l12.523-21.687h90.657L36.64 156.89H-79.06zM149.39 235.402l21.192 36.7-12.523 21.687-21.19-36.7 12.52-21.688z" fill="#d4d0c3" stroke="#b3b3b3" stroke-width="1.417" stroke-linecap="round" stroke-linejoin="round"/><path d="M158.06 293.79L170.58 272.1h90.656l12.524 21.687H158.06zM237.09 230.273l115.71.016-12.52 21.69h-90.66l-12.53-21.707z" fill="#d4d0c3" stroke="#b3b3b3" stroke-width="1.417" stroke-linecap="round" stroke-linejoin="round"/><path d="M352.8 230.29l21.192 36.698-12.523 21.692-21.19-36.7 12.52-21.69z" fill="#d4d0c3" stroke="#b3b3b3" stroke-width="1.417" stroke-linecap="round" stroke-linejoin="round"/><path d="M337.297 330.492h25.074l45.32-78.53-12.51-21.673-57.883 100.202zM386.512 288.68l-12.52 21.687 11.617 20.125h25.085l-24.183-41.812zM179.238 56.672l25.043-.004 45.333 78.512-12.523 21.69-57.852-100.198z" fill="#d4d0c3" stroke="#b3b3b3" stroke-width="1.417" stroke-linecap="round" stroke-linejoin="round"/><path d="M510.86 230.29v-73.4h-48.282l-21.187 36.7 21.188 36.7h48.28zM337.31 330.492l24.135-41.812-21.187-36.7h-42.38l-24.128 41.832 63.56 36.68zM273.75 93.37l24.13 41.833h42.378l21.187-36.7-24.16-41.812-63.535 36.68zM547.523 93.39h42.375l21.192-36.7h-42.38l-21.187 36.7z" fill="#3a3f43" stroke="#b3b3b3" stroke-width="1.417" stroke-linecap="round" stroke-linejoin="round"/><path d="M674.656 93.39h-42.38l-21.186-36.7h42.38l21.186 36.7zM547.523 293.793l42.375-.004 21.192 36.698-42.38.004-21.187-36.7zM611.09 330.488h42.38l21.186-36.7h-42.38l-21.186 36.7zM574.406 193.59l24.14-41.813-21.19-36.7H534.98l-24.132 41.833 63.558 36.68zM510.87 230.27L535 272.102h42.38l21.186-36.7-24.16-41.812-63.535 36.68zM711.32 230.293h48.278l21.19-36.703-21.19-36.7H711.32v73.403z" fill="#3a3f43" stroke="#b3b3b3" stroke-width="1.417" stroke-linecap="round" stroke-linejoin="round"/><path d="M-63.578 330.473l63.535-36.68-24.13-41.832H-66.55l-21.192 36.704 24.164 41.81zM-63.602 56.672l63.56 36.68-24.13 41.832h-42.38l-21.19-36.7 24.14-41.812z" fill="none" stroke="#b3b3b3" stroke-width="1.417" stroke-linecap="round" stroke-linejoin="round"/><path d="M273.75 93.37V19.974h-48.28l-21.19 36.7 21.19 36.698h48.28zM-.02 93.39h48.278l21.19-36.702-21.19-36.7H-.02V93.39zM.883 135.203h23.234l11.62-20.125H12.5L.883 135.203zM.883 251.98L12.5 272.102h23.238l-11.62-20.122H.882zM125.25 193.59l11.62 20.125 11.618-20.125-11.617-20.125-11.62 20.125zM115.68 293.79h42.38l-21.19-36.7-21.19 36.7zM115.68 93.39h42.38l-21.19 36.7-21.19-36.7zM273.77 367.172v-73.4h-48.278l-21.19 36.7 21.19 36.7h48.278zM0 367.19h48.28l21.19-36.702-21.19-36.7H0v73.403zM238.004 272.102h23.234l11.617-20.125H249.62l-11.616 20.125zM238.004 115.078l11.62 20.12h23.235l-11.618-20.12h-23.238zM310.422 230.293h42.38l-21.19-36.703-21.19 36.703zM395.18 230.293h42.38l-21.193-36.703-21.187 36.703zM385.61 330.492l-11.622-20.125-11.617 20.125h23.24zM352.8 156.887h42.38l-21.192-36.7-21.187 36.7zM362.37 56.688l11.618 20.124 11.62-20.124h-23.237z" fill="#3a3f43" stroke="#b3b3b3" stroke-width="1.417" stroke-linecap="round" stroke-linejoin="round"/><path d="M395.156 230.293l12.512 21.668h42.38l-12.513-21.667h-42.38zM416.348 193.59h25.043l45.333 78.512-12.524 21.69-57.852-100.202z" fill="#d4d0c3" stroke="#b3b3b3" stroke-width="1.417" stroke-linecap="round" stroke-linejoin="round"/><path d="M416.348 193.59h25.043l21.188-36.7h-25.043l-21.187 36.7z" fill="#d4d0c3" stroke="#b3b3b3" stroke-width="1.417" stroke-linecap="round" stroke-linejoin="round"/><path d="M395.156 156.89l12.524-21.687h90.656l12.523 21.688H395.155zM623.61 235.402l21.19 36.7-12.523 21.687-21.187-36.7 12.52-21.688z" fill="#d4d0c3" stroke="#b3b3b3" stroke-width="1.417" stroke-linecap="round" stroke-linejoin="round"/><path d="M632.277 293.79L644.8 272.1h90.657l12.523 21.687H632.277zM711.31 230.273l115.71.016-12.52 21.69h-90.66l-12.53-21.707zM653.457 56.672l25.043-.004 45.332 78.512-12.523 21.69-57.853-100.198z" fill="#d4d0c3" stroke="#b3b3b3" stroke-width="1.417" stroke-linecap="round" stroke-linejoin="round"/><path d="M475.102 135.203h23.234l11.62-20.125H486.72L475.1 135.203zM475.102 251.98l11.62 20.122h23.235L498.34 251.98h-23.238zM599.473 193.59l11.617 20.125 11.617-20.125-11.617-20.125-11.617 20.125zM589.898 293.79h42.38l-21.188-36.7-21.192 36.7zM589.898 93.39h42.38l-21.188 36.7-21.192-36.7z" fill="#3a3f43" stroke="#b3b3b3" stroke-width="1.417" stroke-linecap="round" stroke-linejoin="round"/><path d="M647.793 193.59l63.535-36.68-24.13-41.832H644.82l-21.19 36.7 24.163 41.812zM647.77 193.59l63.558 36.68-24.13 41.832H644.82l-21.19-36.704 24.14-41.808zM811.547 330.492l24.14-41.812-21.187-36.7h-42.38l-24.132 41.832 63.56 36.68zM747.988 93.37l24.133 41.833h42.38l21.188-36.7-24.16-41.812-63.54 36.68z" fill="#915744" stroke="#b3b3b3" stroke-width="1.417" stroke-linecap="round" stroke-linejoin="round"/><path d="M712.242 272.102h23.235l11.62-20.125H723.86l-11.618 20.125zM712.242 115.078l11.617 20.125h23.238l-11.62-20.125H712.24z" fill="#3a3f43" stroke="#b3b3b3" stroke-width="1.417" stroke-linecap="round" stroke-linejoin="round"/><path d="M748.012 367.172H699.73l-21.187-36.703 21.187-36.7h48.282v73.402zM747.988 93.37H699.71L678.52 56.67l21.19-36.7h48.278v73.403z" fill="#915744" stroke="#b3b3b3" stroke-width="1.417" stroke-linecap="round" stroke-linejoin="round"/><path d="M-136.934 35.004V56.69l146.7-.018V35.004h-146.7zM9.797 35.023V56.71l146.7-.02V35.024H9.796z" fill="#d4d0c3" stroke="#b3b3b3" stroke-width="1.417" stroke-linecap="round" stroke-linejoin="round"/><path d="M156.496 35.004V56.69l146.695-.018V35.004H156.497zM303.223 35.023V56.71l146.7-.02V35.024h-146.7z" fill="#d4d0c3" stroke="#b3b3b3" stroke-width="1.417" stroke-linecap="round" stroke-linejoin="round"/><path d="M449.922 35.004V56.69l146.7-.018V35.004h-146.7zM596.652 35.004V56.69l146.696-.018V35.004H596.652zM743.383 35.023V56.71l146.695-.02V35.024H743.383z" fill="#d4d0c3" stroke="#b3b3b3" stroke-width="1.417" stroke-linecap="round" stroke-linejoin="round"/><path d="M826.512 1.102v33.98l-146.7-.027V1.102h146.7zM533.082 1.102v33.98l-146.7-.027V1.102h146.7z" fill="#3a3f43" stroke="#b3b3b3" stroke-width="1.774" stroke-linecap="round" stroke-linejoin="round"/><path d="M386.383 1.07v33.985l-146.695-.032V1.07h146.695zM239.656 1.07v33.98l-146.7-.027V1.07h146.7zM92.926 1.102v33.98l-146.7-.027V1.102h146.7zM679.78 1.05v33.98l-146.698-.026V1.05h146.7z" fill="#3a3f43" stroke="#b3b3b3" stroke-width="1.774" stroke-linecap="round" stroke-linejoin="round"/><path d="M826.512 352.14v-21.687l-146.7.02v21.668h146.7z" fill="#d4d0c3" stroke="#b3b3b3" stroke-width="1.417" stroke-linecap="round" stroke-linejoin="round"/><path d="M679.812 352.16v-21.687l-146.7.015v21.672h146.7zM533.082 352.14v-21.687l-146.7.02v21.668h146.7z" fill="#d4d0c3" stroke="#b3b3b3" stroke-width="1.417" stroke-linecap="round" stroke-linejoin="round"/><path d="M386.383 352.16v-21.687l-146.695.015v21.672h146.695zM239.656 352.16v-21.687l-146.7.02v21.667h146.7zM92.926 352.14v-21.687l-146.7.02v21.668h146.7z" fill="#d4d0c3" stroke="#b3b3b3" stroke-width="1.417" stroke-linecap="round" stroke-linejoin="round"/><path d="M-136.934 386.09v-33.98l146.7.027v33.953h-146.7zM9.797 386.062v-33.984l146.7.03v33.954H9.796zM303.223 386.062v-33.984l146.7.03v33.954h-146.7z" fill="#3a3f43" stroke="#b3b3b3" stroke-width="1.774" stroke-linecap="round" stroke-linejoin="round"/><path d="M449.922 386.09v-33.98l146.7.027v33.953h-146.7zM596.652 386.094V352.11l146.696.027v33.957H596.652zM743.383 386.062v-33.984l146.695.03v33.954H743.383zM156.527 386.113V352.13l146.696.03v33.953H156.527z" fill="#3a3f43" stroke="#b3b3b3" stroke-width="1.774" stroke-linecap="round" stroke-linejoin="round"/><path d="M331.613 193.59l21.188 36.7 21.188-36.7h-42.375z" fill="#d4d0c3" stroke="#b3b3b3" stroke-width="1.417" stroke-linecap="round" stroke-linejoin="round"/><path d="M373.988 193.59l21.192 36.7 21.187-36.7h-42.38zM352.8 156.887l21.188 36.703 21.192-36.703H352.8zM115.68 293.79l21.19 36.698 21.19-36.7h-42.38zM115.68 93.39l21.19-36.7 21.19 36.7h-42.38zM36.648 156.91v73.36l63.56-36.68-63.56-36.68zM173.55 193.59l63.54 36.68.008-73.38-63.547 36.7zM.883 135.203L12.5 115.078-.043 93.352l-24.117 41.85H.883zM-11.64 230.29L.882 251.98h23.234l12.524-21.69h-48.28z" fill="#d4d0c3" stroke="#b3b3b3" stroke-width="1.417" stroke-linecap="round" stroke-linejoin="round"/><path d="M-63.535 56.71L-.043 93.353l.012-36.64h-63.505zM-63.547 330.492H-.03v-36.68l-63.517 36.68z" fill="none" stroke="#b3b3b3" stroke-width="1.417" stroke-linecap="round" stroke-linejoin="round"/><path d="M24.117 135.203L36.64 156.89 60.76 115.08h-25.02l-11.62 20.125zM-.02 93.39L12.5 115.08h90.637L115.68 93.39H-.02zM48.258 93.39H73.3l21.192-36.7H69.45l-21.192 36.7zM103.156 115.078l21.172 36.7 12.543-21.688-21.19-36.7-12.524 21.688zM149.39 151.777l-12.52 21.688 11.618 20.125h25.043l-24.14-41.813zM173.53 193.59l-57.85 100.2-12.524-21.688 45.332-78.512h25.043zM-.02 293.793h48.278l-12.52-21.69H12.5l-12.52 21.69z" fill="#d4d0c3" stroke="#b3b3b3" stroke-width="1.417" stroke-linecap="round" stroke-linejoin="round"/><path d="M24.117 251.98l45.332 78.508h25.038l-57.84-100.215-12.53 21.707z" fill="#d4d0c3" stroke="#b3b3b3" stroke-width="1.417" stroke-linecap="round" stroke-linejoin="round"/><path d="M60.78 272.102l12.52 21.69 42.38-.003-12.524-21.688H60.78zM124.348 235.398l12.523-21.683-11.62-20.125h-25.062l24.16 41.808zM100.188 193.59h25.062l45.332-78.512L158.06 93.39l-57.872 100.2zM261.238 272.102l12.524 21.687 24.117-41.813h-25.025l-11.617 20.125zM179.246 330.492h25.047l21.187-36.7h-25.042l-21.192 36.7zM238.004 272.105l11.617-20.125-12.538-21.726-24.12 41.85h25.042zM510.87 156.91v73.36l63.56-36.68-63.56-36.68zM647.77 193.59l63.54 36.68.01-73.38-63.55 36.7zM285.38 230.293l25.042-.004 21.19-36.7H306.57l-21.19 36.703z" fill="#d4d0c3" stroke="#b3b3b3" stroke-width="1.417" stroke-linecap="round" stroke-linejoin="round"/><path d="M306.56 193.57l25.053.02L273.77 93.37l-12.532 21.704 45.32 78.496z" fill="#d4d0c3" stroke="#b3b3b3" stroke-width="1.417" stroke-linecap="round" stroke-linejoin="round"/><path d="M249.62 135.2l-12.53 21.67 48.29.017-12.52-21.688h-23.24zM340.28 135.2l12.52 21.687 57.903-100.18h-25.105L340.28 135.2z" fill="#d4d0c3" stroke="#b3b3b3" stroke-width="1.417" stroke-linecap="round" stroke-linejoin="round"/><path d="M373.992 120.188l21.188 36.7 12.51-21.704L386.513 98.5l-12.52 21.688zM297.902 135.203l12.52 21.688h42.38l-12.525-21.687h-42.375zM225.48 93.387l12.524 21.687h23.234l12.524-21.687H225.48zM158.06 93.39l12.518 21.688h42.38l-12.52-21.687h-42.38zM337.31 56.69l-63.54 36.68V56.71l63.54-.02zM410.703 56.71L474.2 93.353l.01-36.64h-63.507zM273.77 293.812v36.68h63.558l-63.558-36.68zM410.69 330.492h63.52v-36.68l-63.52 36.68zM589.898 293.79l21.192 36.698 21.187-36.7h-42.38zM589.898 93.39l21.192-36.7 21.187 36.7h-42.38zM475.102 135.203l11.617-20.125-12.54-21.726-24.12 41.85H475.1zM462.578 230.29l12.524 21.69h23.238l12.52-21.69h-48.282zM498.336 135.203l12.523 21.688 24.12-41.812h-25.023l-11.62 20.125z" fill="#d4d0c3" stroke="#b3b3b3" stroke-width="1.417" stroke-linecap="round" stroke-linejoin="round"/><path d="M474.2 93.39l12.52 21.688h90.635l12.543-21.687h-115.7zM522.477 93.39h25.046l21.188-36.7H543.67l-21.19 36.7z" fill="#d4d0c3" stroke="#b3b3b3" stroke-width="1.417" stroke-linecap="round" stroke-linejoin="round"/><path d="M577.375 115.078l21.172 36.7 12.543-21.688-21.192-36.7-12.523 21.688zM623.61 151.777l-12.52 21.688 11.617 20.125h25.043l-24.14-41.813zM647.75 193.59l-57.852 100.2-12.523-21.688 45.332-78.512h25.043zM474.2 293.793h48.277l-12.52-21.69h-23.234l-12.524 21.69zM498.34 251.98l45.328 78.508h25.043l-57.84-100.215-12.53 21.707z" fill="#d4d0c3" stroke="#b3b3b3" stroke-width="1.417" stroke-linecap="round" stroke-linejoin="round"/><path d="M535 272.102l12.523 21.69 42.375-.003-12.523-21.688H535zM598.566 235.398l12.524-21.683-11.617-20.125h-25.067l24.16 41.808z" fill="#d4d0c3" stroke="#b3b3b3" stroke-width="1.417" stroke-linecap="round" stroke-linejoin="round"/><path d="M574.406 193.59h25.067l45.328-78.512-12.523-21.687-57.87 100.2zM735.457 272.102l12.523 21.687 24.118-41.813h-25.02l-11.62 20.125zM653.47 330.492h25.042l21.187-36.7h-25.044l-21.187 36.7zM712.223 272.105l11.617-20.125-12.54-21.726-24.12 41.85h25.043zM780.777 193.57l25.055.02-57.844-100.22-12.527 21.704 45.317 78.496zM723.84 135.2l-12.53 21.67 48.288.017-12.52-21.688H723.84z" fill="#d4d0c3" stroke="#b3b3b3" stroke-width="1.417" stroke-linecap="round" stroke-linejoin="round"/><path d="M699.7 93.387l12.523 21.687h23.238l12.52-21.687H699.7zM632.277 93.39l12.52 21.688h42.383L674.656 93.39h-42.38zM811.527 56.69l-63.54 36.68V56.71l63.54-.02zM747.988 293.812v36.68h63.56l-63.56-36.68zM362.383 56.707l-25.074-.016 24.16 41.81 12.518-21.688-11.605-20.105z" fill="#d4d0c3" stroke="#b3b3b3" stroke-width="1.417" stroke-linecap="round" stroke-linejoin="round"/></g></svg>